<?xml version="1.0" encoding="UTF-8" standalone="no"?>
<svg
   xmlns:dc="http://purl.org/dc/elements/1.1/"
   xmlns:cc="http://creativecommons.org/ns#"
   xmlns:rdf="http://www.w3.org/1999/02/22-rdf-syntax-ns#"
   xmlns:svg="http://www.w3.org/2000/svg"
   xmlns="http://www.w3.org/2000/svg"
   viewBox="0 0 283.4649 28.5021"
   id="svg87"
   height="28.5021"
   width="283.4649"
   version="1.1">
  <metadata
     id="metadata93">
    <rdf:RDF>
      <cc:Work
         rdf:about="">
        <dc:format>image/svg+xml</dc:format>
        <dc:type
           rdf:resource="http://purl.org/dc/dcmitype/StillImage" />
        <dc:title></dc:title>
      </cc:Work>
    </rdf:RDF>
  </metadata>
  <defs
     id="defs91" />
  <path
     id="path85"
     style="fill:#1b1918;fill-rule:evenodd"
     d="m 116.3198,20.6366 c 1.4046,1.9315 3.6404,5.4916 5.6199,2.3302 -2.2922,-2.6134 -4.3632,-5.3141 -6.0017,-8.6432 -3.2346,0.6171 -0.2451,5.2958 0.3818,6.313 z M 10.7719,16.0339 v 6.7469 c 0,0.7101 0.0211,1.2778 0.0606,1.6963 0.0366,0.3846 0.0887,0.6452 0.1479,0.7706 0.062,0.1296 0.1451,0.2437 0.2494,0.3437 0.1141,0.1099 0.262,0.2114 0.4353,0.2973 0.1676,0.0831 0.4311,0.1493 0.7819,0.1958 0.3775,0.0508 0.858,0.0775 1.4285,0.0775 h 0.5368 v 1.747 H 0 v -1.747 h 0.5368 c 0.5874,0 1.0749,-0.0267 1.4567,-0.0789 0.3466,-0.0465 0.603,-0.1155 0.7593,-0.1986 C 2.9289,25.7943 3.0712,25.6943 3.1825,25.5858 3.2882,25.483 3.3727,25.366 3.4305,25.2435 3.4939,25.1124 3.5446,24.856 3.5812,24.4771 3.6207,24.0586 3.6418,23.4909 3.6418,22.7808 V 5.7213 C 3.6418,5.0112 3.6207,4.4435 3.5812,4.025 3.5446,3.6404 3.4939,3.3812 3.4333,3.2544 3.3713,3.1248 3.2868,3.0065 3.1839,2.9064 3.0726,2.798 2.9304,2.6979 2.7613,2.6134 2.5936,2.5303 2.3288,2.4641 1.9794,2.4176 1.5976,2.3668 1.1144,2.3401 0.5368,2.3401 H 0 v -1.747 h 11.9764 c 1.9217,0 3.5841,0.1747 4.9788,0.5199 1.4314,0.3564 2.5909,0.896 3.4686,1.6131 0.8777,0.7185 1.5426,1.5384 1.9864,2.4471 0.4466,0.9144 0.6706,1.9175 0.6706,3.0023 0,0.9115 -0.1451,1.7652 -0.4297,2.5556 -0.2874,0.7946 -0.7199,1.5215 -1.2933,2.1766 -0.5635,0.6495 -1.2412,1.2004 -2.0231,1.6427 -0.7776,0.4396 -1.6567,0.7777 -2.6302,1.0088 -0.6566,0.1591 -1.5286,0.2817 -2.6078,0.3592 -0.9397,0.0676 -2.0498,0.1071 -3.3248,0.1155 z m 0,-12.8626 v 10.3141 l 0.4325,0.0126 c 0.7255,-10e-4 1.3637,-0.107 1.9047,-0.3155 0.5269,-0.2029 0.9778,-0.5086 1.3469,-0.9144 0.3691,-0.4043 0.6508,-0.934 0.8424,-1.5835 0.1973,-0.672 0.2973,-1.4779 0.2973,-2.4105 0,-0.9214 -0.1,-1.7146 -0.2973,-2.3767 C 15.1097,5.2634 14.8265,4.7492 14.4616,4.3589 14.0981,3.9729 13.6332,3.6771 13.0781,3.4812 12.4991,3.2755 11.8144,3.1713 11.0325,3.1713 Z m 26.0943,17.2568 h -8.4797 l -0.9989,2.2414 c -0.1662,0.3903 -0.2916,0.7538 -0.3748,1.0848 -0.0788,0.3114 -0.1183,0.5875 -0.1183,0.827 0,0.2832 0.0535,0.5241 0.1564,0.7171 0.1,0.186 0.2564,0.3452 0.4607,0.4706 0.1225,0.069 0.3705,0.1408 0.7354,0.2071 0.3987,0.0718 0.9383,0.1366 1.6075,0.1873 l 0.4973,0.0395 v 1.7061 h -9.7886 v -1.6667 l 0.4551,-0.0718 c 0.4114,-0.0634 0.7889,-0.1832 1.1228,-0.3536 0.3339,-0.1705 0.6298,-0.3931 0.8848,-0.665 0.2705,-0.2888 0.5874,-0.7537 0.9439,-1.3891 0.3677,-0.6565 0.7692,-1.4779 1.1989,-2.4556 L 34.6811,0.0789 h 1.0637 l 9.5941,21.8073 c 0.4452,1.013 0.8495,1.8385 1.2073,2.4669 0.3424,0.6001 0.6411,1.0172 0.8876,1.2454 0.1691,0.1564 0.3776,0.2832 0.6213,0.3747 0.2592,0.0972 0.5663,0.1621 0.92,0.1902 l 0.4945,0.0409 v 1.7047 h -13.753 v -1.747 h 1.058 c 0.9003,0 1.5173,-0.1113 1.8329,-0.3325 0.062,-0.045 0.1113,-0.1042 0.1423,-0.1704 0.0338,-0.0747 0.0535,-0.1733 0.0535,-0.2917 l -0.0211,-0.2845 c -0.1353,-0.603 -0.3888,-1.1299 -0.6241,-1.7047 z m -1.089,-2.4979 -3.098,-7.0808 -3.1727,7.0808 z M 50.2839,0.5931 h 14.0742 v 1.747 h -1.2173 c -0.4818,0 -0.8861,0.0253 -1.2116,0.0746 -0.2874,0.0437 -0.4987,0.1029 -0.6269,0.1762 -0.1451,0.0803 -0.2649,0.1732 -0.3592,0.2761 -0.093,0.1 -0.1691,0.2198 -0.2226,0.3494 -0.0606,0.1394 -0.1085,0.4156 -0.1437,0.8298 -0.0395,0.4578 -0.0592,1.058 -0.0592,1.7934 v 12.8373 c 0,1.1552 0.0437,2.1104 0.1282,2.8599 0.0817,0.7199 0.2,1.2482 0.3494,1.5737 0.1535,0.3297 0.362,0.6354 0.6114,0.9087 0.2578,0.2789 0.5706,0.5353 0.9312,0.7608 0.3565,0.2197 0.7664,0.3874 1.2229,0.4987 0.4649,0.1127 0.9918,0.1719 1.5709,0.1719 0.6635,0 1.2763,-0.0733 1.8328,-0.2198 0.5495,-0.1451 1.051,-0.3635 1.5004,-0.6509 0.4495,-0.2888 0.8482,-0.6354 1.1863,-1.0341 0.3381,-0.3987 0.6227,-0.858 0.8481,-1.3694 0.2254,-0.5128 0.4001,-1.2355 0.517,-2.1583 0.1198,-0.9453 0.1818,-2.1076 0.1818,-3.484 V 5.8396 C 71.398,5.2775 71.3684,4.7943 71.3106,4.3984 71.2571,4.0265 71.181,3.7376 71.0852,3.5418 70.9852,3.3361 70.8725,3.16 70.7471,3.0177 70.64,2.8923 70.5189,2.7951 70.3907,2.7275 70.1497,2.6035 69.8454,2.5077 69.489,2.4429 69.1171,2.3753 68.6775,2.3401 68.1746,2.3401 h -0.5368 v -1.747 h 10.1379 v 1.747 H 76.698 c -0.3255,0 -0.6199,0.0324 -0.8777,0.0958 -0.2494,0.0606 -0.4762,0.1535 -0.6706,0.2719 -0.1888,0.1141 -0.3536,0.2606 -0.4903,0.4339 -0.1423,0.1775 -0.2606,0.3931 -0.348,0.6368 l -0.006,0.0155 c -0.0634,0.162 -0.1155,0.4114 -0.1522,0.7396 -0.0394,0.3466 -0.0591,0.7833 -0.0591,1.306 v 9.9619 c 0,1.5398 -0.0536,2.8853 -0.1564,4.0264 -0.1043,1.1496 -0.2635,2.0823 -0.4734,2.7937 -0.2226,0.7509 -0.603,1.4694 -1.1383,2.1513 -0.5227,0.6664 -1.1989,1.3032 -2.0203,1.9033 -0.8439,0.6129 -1.8343,1.075 -2.967,1.3779 -1.1158,0.2972 -2.3781,0.448 -3.7827,0.448 -1.1608,0 -2.1977,-0.0803 -3.1036,-0.2353 -0.9228,-0.1592 -1.7188,-0.4057 -2.3823,-0.7312 -0.8848,-0.4297 -1.647,-0.9284 -2.2809,-1.4905 -0.6425,-0.5692 -1.1553,-1.2088 -1.5314,-1.909 C 53.8887,23.45 53.6083,22.6399 53.4237,21.7172 53.242,20.8211 53.1504,19.8068 53.1504,18.6839 V 5.8396 C 53.1504,5.0817 53.1293,4.4801 53.0913,4.042 53.056,3.6376 53.0081,3.3657 52.9518,3.2305 52.8898,3.098 52.8081,2.9783 52.7095,2.8768 52.6066,2.7698 52.47,2.6697 52.3122,2.5852 52.1614,2.5063 51.9247,2.4457 51.6078,2.4021 51.2541,2.3542 50.8118,2.333 50.2891,2.3387 l -0.5424,0.007 V 0.5931 Z m 53.2212,17.6527 -1.0397,9.6632 H 78.2125 v -1.747 h 1.4003 c 0.3424,0 0.6467,-0.0296 0.9101,-0.0887 0.2536,-0.055 0.4748,-0.1395 0.6537,-0.2438 0.1198,-0.0676 0.2212,-0.1507 0.3029,-0.2507 0.0902,-0.1099 0.1719,-0.2522 0.2424,-0.4269 l 0.007,-0.0141 c 0.0437,-0.0986 0.0831,-0.3269 0.1127,-0.6819 0.0338,-0.3959 0.0521,-0.9171 0.0521,-1.5567 V 5.6029 c 0,-0.6537 -0.0183,-1.1876 -0.0521,-1.5962 C 81.812,3.6348 81.7698,3.3883 81.7219,3.2713 81.6768,3.1671 81.6049,3.0628 81.5105,2.9656 81.4049,2.8557 81.2612,2.7472 81.0921,2.6486 80.9259,2.5486 80.7244,2.4725 80.4905,2.4218 80.2412,2.3683 79.9453,2.3401 79.6128,2.3401 h -1.4003 v -1.747 h 15.0448 v 1.747 h -1.6835 c -0.3424,0 -0.6453,0.0296 -0.9101,0.0887 -0.2578,0.0578 -0.4818,0.1423 -0.665,0.2466 L 89.986,2.6834 C 89.879,2.7412 89.7789,2.8257 89.6902,2.93 89.5902,3.0469 89.5,3.1934 89.4239,3.3667 89.3802,3.4653 89.3422,3.6922 89.3126,4.0416 89.2788,4.4374 89.2605,4.9615 89.2605,5.6025 v 16.7426 c 0,0.665 0.0197,1.2003 0.0535,1.5934 0.0338,0.3761 0.0803,0.6354 0.1353,0.7692 0.0479,0.1127 0.1169,0.2113 0.2028,0.2888 0.0972,0.0888 0.2269,0.1663 0.3804,0.2325 0.1325,0.0422 0.3635,0.076 0.6974,0.1 0.3733,0.0268 0.8608,0.0409 1.4567,0.0409 h 2.1767 c 1.3003,0 2.3738,-0.224 3.2149,-0.6678 0.417,-0.2198 0.8115,-0.51 1.1778,-0.8622 0.3677,-0.3551 0.71,-0.7805 1.0214,-1.268 0.3184,-0.5001 0.6354,-1.1299 0.9425,-1.8794 0.3085,-0.7523 0.6114,-1.6413 0.9073,-2.6528 l 0.1141,-0.3874 h 1.8286 z m 57.39,-17.7189 0.21,9.2941 h -1.7907 L 159.237,9.3744 c -0.179,-1.0426 -0.4847,-1.9808 -0.9158,-2.8064 -0.4283,-0.8214 -0.989,-1.5483 -1.6737,-2.1724 -0.6847,-0.6213 -1.3989,-1.0919 -2.1372,-1.4004 -0.7227,-0.3057 -1.4778,-0.4579 -2.2583,-0.4579 -0.6044,0 -1.1398,0.0789 -1.599,0.2339 -0.4495,0.1493 -0.8397,0.3776 -1.1665,0.679 -0.3339,0.3029 -0.5833,0.6256 -0.7425,0.9623 -0.1578,0.331 -0.2367,0.6889 -0.2367,1.0651 0,0.2423 0.0282,0.4733 0.0846,0.6832 0.0521,0.2085 0.1366,0.4058 0.2437,0.5861 0.1606,0.2621 0.3804,0.5311 0.6509,0.8016 0.2747,0.2748 0.61,0.5551 0.9988,0.8327 0.2902,0.2 0.7861,0.493 1.4793,0.8664 0.6931,0.3747 1.5779,0.8284 2.6486,1.3567 1.5581,0.7636 2.8669,1.5088 3.9207,2.2316 1.0778,0.741 1.9048,1.4694 2.4739,2.1823 0.5692,0.7185 0.9975,1.4919 1.2807,2.3119 0.2846,0.8241 0.4283,1.699 0.4283,2.6204 0,1.1679 -0.2325,2.2626 -0.6932,3.2741 -0.4522,1.0031 -1.1383,1.9273 -2.047,2.767 -0.9045,0.834 -1.9357,1.4651 -3.091,1.885 -1.1454,0.4156 -2.4091,0.6255 -3.7827,0.6255 -0.4212,0 -0.8453,-0.024 -1.2609,-0.0676 -0.4142,-0.0423 -0.8143,-0.1113 -1.1975,-0.1973 -0.3931,-0.0873 -0.8326,-0.2141 -1.3074,-0.3775 -0.4649,-0.1606 -0.9847,-0.3621 -1.5525,-0.6002 -0.2818,-0.1169 -0.5396,-0.2043 -0.7678,-0.2606 -0.2099,-0.0522 -0.3959,-0.0789 -0.5565,-0.0789 -0.1057,0 -0.2198,0.0225 -0.3325,0.062 -0.131,0.0493 -0.2761,0.1282 -0.4255,0.231 -0.1408,0.0972 -0.2719,0.2268 -0.3888,0.379 -0.124,0.162 -0.2367,0.3578 -0.3325,0.5832 l -0.138,0.3269 h -1.5652 V 17.5343 h 1.6469 l 0.0873,0.4297 c 0.2719,1.337 0.6734,2.519 1.1975,3.5348 0.5157,1.0017 1.1567,1.8484 1.9146,2.5331 0.7636,0.6861 1.5568,1.2031 2.3739,1.5455 0.8044,0.3353 1.6399,0.5057 2.5063,0.5057 0.6636,0 1.2567,-0.0901 1.7751,-0.2662 0.5044,-0.1719 0.9468,-0.4311 1.3187,-0.7721 0.3761,-0.3451 0.6593,-0.7143 0.8425,-1.1059 0.1775,-0.3804 0.269,-0.7974 0.269,-1.244 0,-0.5199 -0.1422,-1.0341 -0.4226,-1.53 -0.1437,-0.2536 -0.3297,-0.5058 -0.5509,-0.7509 -0.224,-0.2508 -0.4959,-0.5001 -0.8086,-0.7453 -0.3142,-0.2437 -0.7622,-0.5325 -1.3342,-0.8594 -0.5903,-0.3367 -1.3046,-0.7143 -2.1358,-1.1228 -1.2087,-0.5903 -2.2456,-1.1398 -3.1022,-1.6371 -0.8777,-0.5114 -1.5948,-0.9862 -2.14,-1.4187 -0.541,-0.4283 -1.0256,-0.8904 -1.4469,-1.3764 -0.4226,-0.4903 -0.7875,-1.0101 -1.0848,-1.5497 -0.3015,-0.5509 -0.5311,-1.1327 -0.6804,-1.7371 -0.1494,-0.6044 -0.2254,-1.2384 -0.2254,-1.885 0,-1.1172 0.2071,-2.1583 0.6184,-3.1149 0.41,-0.9538 1.0285,-1.8287 1.8512,-2.6148 0.8171,-0.7862 1.7442,-1.3779 2.7768,-1.7681 C 149.5513,0.1958 150.684,0 151.9153,0 c 0.4452,0 0.8875,0.0268 1.3215,0.0789 0.4254,0.0521 0.8551,0.1324 1.2848,0.2423 0.3212,0.0817 0.6819,0.2015 1.0735,0.3536 0.3973,0.1522 0.8129,0.3339 1.2412,0.5382 0.4227,0.2015 0.772,0.3508 1.0454,0.4424 0.2465,0.0817 0.4325,0.1254 0.5508,0.1254 0.1043,0 0.1958,-0.0155 0.2621,-0.0395 l 0.138,-0.093 c 0.0465,-0.0493 0.1071,-0.1676 0.1705,-0.3451 0.0803,-0.2226 0.162,-0.5171 0.2381,-0.8777 L 159.3313,0 h 1.5526 z M 175.113,15.283 v 7.6162 c 0,0.6565 0.0183,1.1918 0.0522,1.6018 0.031,0.3635 0.0704,0.6044 0.1169,0.7129 0.0493,0.1113 0.1268,0.2212 0.2268,0.324 0.1099,0.1085 0.2508,0.2184 0.4184,0.3156 0.1691,0.1014 0.3691,0.1775 0.5988,0.2268 0.2451,0.055 0.5382,0.0817 0.8664,0.0817 h 1.4018 v 1.747 H 164.065 v -1.747 h 1.4004 c 0.3423,0 0.6466,-0.0296 0.9101,-0.0887 0.2536,-0.055 0.4748,-0.1395 0.6537,-0.2438 0.1197,-0.0676 0.2212,-0.1507 0.3029,-0.2507 0.0944,-0.1156 0.1761,-0.2579 0.2423,-0.4241 l 0.007,-0.0169 c 0.0437,-0.0986 0.0832,-0.3269 0.1127,-0.6819 0.0339,-0.3959 0.0522,-0.9171 0.0522,-1.5567 V 5.6029 c 0,-0.6537 -0.0183,-1.1876 -0.0522,-1.5962 -0.0295,-0.3719 -0.0718,-0.6184 -0.1197,-0.7354 -0.0451,-0.1042 -0.1169,-0.2085 -0.2113,-0.3057 -0.1057,-0.1099 -0.2494,-0.2184 -0.4185,-0.317 -0.1662,-0.1 -0.3677,-0.1761 -0.6015,-0.2268 -0.2494,-0.0535 -0.5452,-0.0817 -0.8777,-0.0817 h -1.4004 v -1.747 h 14.7293 v 1.747 h -1.4018 c -0.3381,0 -0.6382,0.0296 -0.8988,0.0887 -0.2508,0.055 -0.472,0.1395 -0.6509,0.2438 -0.1155,0.0662 -0.217,0.1521 -0.3057,0.2578 -0.0972,0.1155 -0.186,0.2634 -0.2592,0.4325 -0.0451,0.1028 -0.0832,0.3297 -0.1127,0.6791 -0.0339,0.3958 -0.0522,0.9199 -0.0522,1.5609 v 6.9047 h 8.2276 V 5.6029 c 0,-0.6565 -0.0183,-1.1918 -0.0521,-1.6004 -0.0296,-0.3677 -0.0705,-0.6128 -0.117,-0.7255 -0.0437,-0.1043 -0.1169,-0.21 -0.2127,-0.3086 -0.1071,-0.1099 -0.2522,-0.2183 -0.4283,-0.3184 -0.1705,-0.1 -0.3733,-0.1775 -0.61,-0.2282 -0.2494,-0.0535 -0.5438,-0.0817 -0.8735,-0.0817 h -1.3877 v -1.747 h 14.7293 v 1.747 h -1.3877 c -0.3451,0 -0.6523,0.0296 -0.9143,0.0887 -0.248,0.055 -0.4635,0.1381 -0.6382,0.2424 l -0.0211,0.0126 c -0.1071,0.0578 -0.2071,0.1423 -0.2959,0.2466 -0.0986,0.1169 -0.1874,0.262 -0.2592,0.4297 -0.0437,0.1028 -0.0831,0.3325 -0.1127,0.6861 -0.0338,0.3959 -0.0522,0.9171 -0.0522,1.5567 v 17.2963 c 0,0.6537 0.0184,1.1876 0.0522,1.5962 0.0296,0.3635 0.0704,0.6086 0.1169,0.7283 0.0493,0.1142 0.1226,0.2184 0.2156,0.3128 0.1084,0.1099 0.2521,0.217 0.4254,0.3156 0.1719,0.1014 0.3748,0.1775 0.61,0.2282 0.2508,0.0535 0.5438,0.0817 0.8735,0.0817 h 1.3877 v 0.0719 l 0.3973,-0.0634 c 0.4114,-0.0634 0.7889,-0.1832 1.1228,-0.3536 0.3339,-0.1705 0.6298,-0.3931 0.8848,-0.665 0.2705,-0.2888 0.5875,-0.7537 0.9439,-1.3891 0.3677,-0.6565 0.7692,-1.4779 1.1989,-2.4556 l 9.5124,-21.2283 h 1.0637 l 9.5941,21.8073 c 0.4452,1.013 0.8495,1.8385 1.2074,2.4669 0.3423,0.6001 0.641,1.0172 0.8875,1.2454 0.1691,0.1564 0.3776,0.2832 0.6213,0.3747 0.2592,0.0972 0.5664,0.1621 0.92,0.1902 l 0.4945,0.0409 v 1.7047 h -13.753 v -1.747 h 1.058 c 0.9003,0 1.5173,-0.1113 1.8329,-0.3325 0.062,-0.045 0.1113,-0.1042 0.1423,-0.1704 0.0338,-0.0747 0.0535,-0.1733 0.0535,-0.2917 l -0.0211,-0.2845 c -0.1352,-0.603 -0.3888,-1.1299 -0.6241,-1.7047 l -1.2919,-2.9501 h -8.4797 l -0.9989,2.2414 c -0.1662,0.3903 -0.2916,0.7538 -0.3747,1.0848 -0.0789,0.3114 -0.1184,0.5875 -0.1184,0.827 0,0.2832 0.0536,0.5241 0.1564,0.7171 0.1,0.186 0.2564,0.3452 0.4607,0.4706 0.1226,0.069 0.3705,0.1408 0.7354,0.2071 0.3987,0.0718 0.9383,0.1366 1.6075,0.1873 l 0.4973,0.0395 v 1.7061 h -24.4601 v -1.747 h 1.3877 c 0.3466,0 0.6523,-0.0296 0.9143,-0.0887 0.2494,-0.055 0.465,-0.1381 0.6396,-0.2424 l 0.0141,-0.008 c 0.1099,-0.0606 0.2128,-0.1465 0.3015,-0.2508 0.1001,-0.1169 0.1874,-0.262 0.2592,-0.4297 0.0451,-0.1056 0.0832,-0.3325 0.1128,-0.6818 0.0338,-0.3959 0.0521,-0.92 0.0521,-1.561 v -7.6162 z m 34.4318,2.6472 -3.098,-7.0808 -3.1727,7.0808 z m 24.6615,-1.9752 v 6.8653 c 0,0.7002 0.0211,1.2623 0.0606,1.6779 0.0366,0.379 0.0873,0.634 0.1479,0.7565 l 0.006,0.0141 c 0.055,0.1198 0.1381,0.2339 0.241,0.3311 0.1127,0.1071 0.2564,0.2057 0.4254,0.2888 0.1677,0.0831 0.4325,0.1493 0.7819,0.1958 0.3832,0.0508 0.865,0.0775 1.4427,0.0775 h 0.5367 v 1.747 h -14.4912 v -1.747 h 0.5368 c 0.5861,0 1.0735,-0.0267 1.4581,-0.0789 0.3452,-0.0451 0.6016,-0.1127 0.7608,-0.1958 0.1733,-0.0902 0.3184,-0.1916 0.4311,-0.2987 0.1057,-0.1014 0.1902,-0.2169 0.2451,-0.3339 0.0606,-0.1282 0.1113,-0.386 0.1494,-0.7607 0.0394,-0.4156 0.0605,-0.9749 0.0605,-1.6737 V 5.6818 c 0,-0.703 -0.0211,-1.2637 -0.0605,-1.6793 -0.0381,-0.3776 -0.0888,-0.6326 -0.148,-0.7551 -0.062,-0.1353 -0.1451,-0.248 -0.2479,-0.3452 C 226.43,2.7937 226.282,2.6951 226.1172,2.612 225.9496,2.5303 225.6875,2.4641 225.3367,2.4176 224.9535,2.3668 224.4717,2.3401 223.8941,2.3401 h -0.5368 v -1.747 h 12.7274 c 1.5891,0 2.9796,0.0564 4.1687,0.1691 1.2003,0.1113 2.1823,0.2846 2.9444,0.5128 0.7876,0.2353 1.5103,0.5706 2.1513,1.0045 0.6424,0.4339 1.2172,0.9749 1.7188,1.6131 0.5001,0.6354 0.8777,1.3342 1.1299,2.0837 0.2521,0.7509 0.3775,1.5539 0.3775,2.4034 0,1.0384 -0.1916,1.9949 -0.5705,2.8642 -0.3804,0.8735 -0.9482,1.6526 -1.6977,2.3344 -0.8129,0.7326 -1.8892,1.3088 -3.2248,1.7188 l 5.8438,8.2586 c 0.403,0.5522 0.7523,1.0059 1.0426,1.3553 0.2705,0.3282 0.4832,0.5551 0.6325,0.6776 0.2142,0.1592 0.4494,0.2846 0.7002,0.372 0.2578,0.0901 0.5438,0.1465 0.8439,0.1634 l 0.5072,0.0296 0.8284,0.008 c 0.3423,0 0.6466,-0.0296 0.9101,-0.0887 0.2522,-0.055 0.4733,-0.1395 0.6523,-0.2438 0.1197,-0.0676 0.2211,-0.1507 0.3029,-0.2507 0.0944,-0.1156 0.1761,-0.2579 0.2423,-0.4241 l 0.007,-0.0169 c 0.0437,-0.0986 0.0831,-0.3269 0.1127,-0.6819 0.0338,-0.3959 0.0522,-0.9171 0.0522,-1.5567 V 5.6025 c 0,-0.6537 -0.0184,-1.1876 -0.0522,-1.5962 -0.0296,-0.3719 -0.0718,-0.6184 -0.1197,-0.7354 -0.0451,-0.1042 -0.117,-0.2085 -0.2113,-0.3057 -0.1057,-0.1099 -0.2494,-0.2184 -0.4185,-0.317 -0.1662,-0.1 -0.3677,-0.1761 -0.6015,-0.2268 -0.2494,-0.0535 -0.5438,-0.0817 -0.8763,-0.0817 h -1.4018 v -1.747 h 14.0953 v 1.747 h -0.5368 c -0.4071,0 -0.7664,0.0296 -1.0693,0.0873 -0.2803,0.0536 -0.5142,0.1325 -0.6931,0.2325 -0.1169,0.062 -0.2184,0.1479 -0.3085,0.2508 -0.0972,0.1113 -0.1846,0.2521 -0.2564,0.4142 -0.0536,0.1183 -0.0972,0.3508 -0.1297,0.7001 -0.0352,0.3847 -0.0535,0.9116 -0.0535,1.5779 v 7.0681 l 8.8841,-7.1484 c 0.6354,-0.5241 1.113,-0.996 1.4243,-1.4102 0.2663,-0.3522 0.4001,-0.6382 0.4001,-0.8524 0,-0.1366 -0.0366,-0.2578 -0.1085,-0.3592 C 273.6384,2.775 273.4933,2.6581 273.296,2.5552 273.2101,2.5116 273.0227,2.4693 272.7353,2.4327 272.4014,2.389 271.9605,2.3566 271.4195,2.3383 L 270.8996,2.3214 V 0.5927 h 11.2791 V 2.3045 L 281.68,2.3383 c -0.4325,0.0296 -0.8157,0.0845 -1.1454,0.1606 -0.3156,0.0718 -0.5847,0.1676 -0.8045,0.2817 -0.2296,0.1128 -0.6353,0.3931 -1.2144,0.8313 -0.6156,0.4635 -1.382,1.0749 -2.2935,1.823 l -7.2597,5.8452 8.8573,11.1397 c 0.6382,0.8002 1.2327,1.4722 1.7695,2.0047 0.5311,0.5227 1.0185,0.9256 1.4581,1.1989 0.293,0.179 0.5988,0.3156 0.9115,0.4044 0.3128,0.0873 0.6368,0.1338 0.9693,0.1338 h 0.5367 v 1.747 h -14.6954 v -1.6977 l 0.4888,-0.0451 c 0.3987,-0.0366 0.7298,-0.0873 0.9806,-0.1479 0.1972,-0.0479 0.3353,-0.1 0.4029,-0.1479 l 0.1381,-0.1522 0.0338,-0.1535 c 0,-0.1804 -0.1254,-0.4903 -0.3734,-0.9228 -0.2803,-0.4875 -0.7086,-1.1003 -1.2834,-1.8301 l -5.6677,-7.1259 -0.3621,0.2917 v 6.9216 c 0,0.6861 0.0197,1.2313 0.0535,1.6243 0.0325,0.3678 0.0775,0.6143 0.1297,0.7284 0.0507,0.1057 0.1282,0.2113 0.2254,0.3057 0.1141,0.1085 0.262,0.2142 0.4367,0.3072 0.1691,0.0929 0.4015,0.1662 0.696,0.2155 0.3198,0.0535 0.7114,0.0817 1.1679,0.0817 h 0.5368 v 1.747 h -22.7925 l -8.4642,-11.954 z m 0,-12.8232 v 10.3648 h 0.5649 c 0.8763,0 1.6413,-0.0408 2.288,-0.1183 0.6325,-0.0761 1.1552,-0.1902 1.5581,-0.3353 0.3861,-0.1451 0.734,-0.3452 1.0313,-0.596 0.3015,-0.2578 0.5706,-0.579 0.7918,-0.9509 0.2226,-0.3734 0.3944,-0.8157 0.51,-1.3201 0.1183,-0.5128 0.1775,-1.0961 0.1775,-1.7427 0,-0.9439 -0.1085,-1.7568 -0.3241,-2.4359 -0.2085,-0.6551 -0.5198,-1.1919 -0.9256,-1.6032 -0.4043,-0.4086 -0.9425,-0.7228 -1.6088,-0.9313 -0.7002,-0.2198 -1.5441,-0.3311 -2.5275,-0.3311 z M 119.8475,2.8247 c -0.8551,0.9003 1.6131,5.934 2.1598,6.9047 3.2149,-0.4677 -0.1959,-8.6404 -2.1598,-6.9047 z m 8.0656,1.0102 c 0.4381,1.2552 0.448,3.0134 -0.5607,3.9898 -1.2483,1.5398 -3.0065,2.4654 -4.5815,3.4727 0.9692,1.7709 1.7469,3.2868 3.2417,4.7224 1.2341,-2.8895 2.8388,-6.1129 6.0946,-7.0089 1.4609,-0.2775 3.0416,0.3184 4.0278,1.3384 1.8737,2.4373 0.8382,6.3031 -2.3527,6.8666 -2.3781,0.3987 -4.3406,-1.2595 -4.914,-3.4826 -0.6072,1.1693 -1.3934,2.257 -1.7752,3.5813 2.0668,2.619 7.0146,6.7919 9.6026,2.4344 0.5495,8.7446 -6.8934,9.8308 -13.6163,4.4181 -2.0837,2.6627 -5.2887,4.2195 -8.746,3.5207 -5.7297,-1.2482 -7.6359,-8.4206 -3.4122,-12.4442 1.182,-1.3018 4.273,-2.5359 4.273,-2.5359 -0.5833,-1.7343 -1.6934,-3.5306 -1.2553,-5.5396 1.0172,-7.7542 11.4327,-8.7516 13.9742,-3.3332 z" />
</svg>
