<?xml version="1.0" encoding="UTF-8" standalone="no"?>
<svg
   xmlns:dc="http://purl.org/dc/elements/1.1/"
   xmlns:cc="http://creativecommons.org/ns#"
   xmlns:rdf="http://www.w3.org/1999/02/22-rdf-syntax-ns#"
   xmlns:svg="http://www.w3.org/2000/svg"
   xmlns="http://www.w3.org/2000/svg"
   viewBox="0 0 155.3605 70.866097"
   id="svg8"
   height="70.866096"
   width="155.3605"
   version="1.1">
  <metadata
     id="metadata14">
    <rdf:RDF>
      <cc:Work
         rdf:about="">
        <dc:format>image/svg+xml</dc:format>
        <dc:type
           rdf:resource="http://purl.org/dc/dcmitype/StillImage" />
        <dc:title></dc:title>
      </cc:Work>
    </rdf:RDF>
  </metadata>
  <defs
     id="defs12" />
  <path
     id="path2"
     style="fill:none;stroke:#9b3d6a;stroke-width:0.56690001;stroke-linecap:butt;stroke-linejoin:miter;stroke-dasharray:none"
     d="m 125.9035,15.6655 c -0.1196,0 -0.186,0.0944 -0.186,0.17 v 2.8136 c 0,0.1322 0.0664,0.1511 0.1727,0.1511 h 4.2506 c 0.1328,0 0.1859,-0.1322 0.1859,-0.2455 v -2.6059 c 0,-0.2077 -0.1062,-0.2833 -0.2523,-0.2833 z" />
  <path
     id="path4"
     style="fill:#9b3d6a;fill-rule:evenodd"
     d="m 11.0111,46.9989 h 134.3371 l 5.4653,-26.4315 -18.2359,-2.1885 v -2.4681 l 19.8466,2.3818 1.3231,0.1588 -0.2692,1.3023 -5.9202,28.6313 -0.1792,0.867 -0.8747,0.1055 L 13.0415,65.4561 11.902,65.5936 11.6954,64.4549 0.2957,1.6294 0,0 1.6418,0.1971 123.4666,14.8173 v 2.4681 L 2.9962,2.8277 Z m 141.4823,21.4229 c 0.0135,0.2537 0.0664,0.5016 0.1511,0.7419 0.0926,0.2627 0.2333,0.4975 0.4391,0.6867 0.1972,0.1813 0.432,0.2632 0.6992,0.2632 0.2558,0 0.4827,-0.0898 0.6847,-0.2454 0.2241,-0.1712 0.4024,-0.3827 0.5424,-0.6273 l 0.0378,-0.066 0.3128,0.1072 -0.0308,0.0875 c -0.1479,0.4201 -0.3899,0.7784 -0.7301,1.0656 -0.3327,0.2827 -0.7197,0.4309 -1.1566,0.4309 -0.331,0 -0.6369,-0.0893 -0.9086,-0.2788 -0.2704,-0.1893 -0.4718,-0.4379 -0.6098,-0.7375 -0.1455,-0.3136 -0.212,-0.6463 -0.212,-0.9913 0,-0.3865 0.0629,-0.7714 0.2243,-1.1247 0.1435,-0.3208 0.3556,-0.5879 0.6469,-0.7852 l 7e-4,-5e-4 c 0.2934,-0.1949 0.6208,-0.2839 0.9718,-0.2839 0.4485,0 0.8474,0.1372 1.1545,0.4705 0.3043,0.3329 0.4336,0.7461 0.4457,1.1926 l 0.003,0.0945 z m -10.4372,1.935 c 0.098,0.0904 0.3317,0.1224 0.4579,0.1349 l 0.0829,0.008 v 0.2886 h -2.1978 v -0.2886 l 0.0829,-0.008 c 0.1265,-0.0125 0.3606,-0.0446 0.4584,-0.1354 0.0862,-0.0799 0.1006,-0.2427 0.1006,-0.3522 v -1.8778 c 0,-0.1298 -0.003,-0.2622 -0.0168,-0.3913 -0.008,-0.0718 -0.0195,-0.1602 -0.046,-0.2276 -0.0335,-0.0853 -0.0926,-0.1179 -0.1829,-0.1179 -0.0934,0 -0.19,0.02 -0.2796,0.0449 l -0.1166,0.0324 v -0.3086 l 1.5559,-0.5306 v 0.6055 c 0.2194,-0.2954 0.517,-0.5689 0.8877,-0.5689 0.4105,0 0.5724,0.2757 0.5724,0.6585 v 0.006 l -8e-4,0.006 c -0.0325,0.2485 -0.2219,0.3444 -0.4562,0.3444 -0.1441,0 -0.2706,-0.0732 -0.3731,-0.1693 -0.0382,-0.0352 -0.1378,-0.1202 -0.1933,-0.1202 -0.0723,0 -0.2132,0.1606 -0.2545,0.2102 -0.077,0.0925 -0.1822,0.2385 -0.1822,0.365 v 2.0394 c 0,0.1114 0.0152,0.2705 0.1011,0.3527 z M 129.6571,67.473 c 0.0104,0.0752 0.0154,0.1514 0.0154,0.2273 0,0.1309 -0.0559,0.2393 -0.1499,0.3286 -0.0918,0.0893 -0.2036,0.1411 -0.3323,0.1411 -0.293,0 -0.4821,-0.142 -0.4821,-0.4466 0,-0.1248 0.0506,-0.2493 0.1099,-0.3569 0.2959,-0.54 0.8583,-0.7023 1.4421,-0.7023 0.3619,0 0.7976,0.0622 1.0387,0.3637 0.246,0.3046 0.2847,0.826 0.2847,1.2012 v 1.8128 c 0,0.0427 0.005,0.13 0.0438,0.1586 0.0153,0.0112 0.0367,0.0138 0.0551,0.0138 0.1213,0 0.2907,-0.116 0.3834,-0.1852 l 0.147,-0.1099 v 0.4422 l -0.0176,0.0242 c -0.0882,0.1213 -0.2155,0.2252 -0.338,0.3105 -0.1218,0.0877 -0.2725,0.17 -0.4265,0.17 -0.2048,0 -0.402,-0.054 -0.5381,-0.2151 -0.0841,-0.0995 -0.1362,-0.2143 -0.1625,-0.3372 -0.3288,0.2753 -0.7545,0.5523 -1.177,0.5523 -0.2727,0 -0.5128,-0.0934 -0.7082,-0.2842 -0.196,-0.1913 -0.2921,-0.428 -0.2921,-0.7016 0,-0.2542 0.0707,-0.4865 0.2268,-0.6876 0.1534,-0.1999 0.3483,-0.3586 0.5664,-0.4833 0.2147,-0.1227 0.4379,-0.2318 0.6696,-0.3187 0.2183,-0.084 0.4372,-0.1667 0.6558,-0.2501 -7e-4,-0.1213 -0.004,-0.2429 -0.0109,-0.3638 -0.006,-0.1015 -0.0152,-0.2053 -0.0335,-0.3052 -0.0213,-0.115 -0.0624,-0.2452 -0.1517,-0.3262 -0.0882,-0.0798 -0.2271,-0.0979 -0.3411,-0.0979 -0.1004,0 -0.2005,0.0243 -0.2943,0.0589 -0.0667,0.0266 -0.1433,0.0672 -0.1781,0.1333 l -0.003,0.006 -0.004,0.006 c -0.008,0.0124 -0.009,0.056 -0.009,0.0707 0,0.0481 0.007,0.1023 0.0119,0.1503 z m -9.7163,-0.2527 c 0.3327,-0.3207 0.7372,-0.5561 1.217,-0.5561 0.2304,0 0.4564,0.0502 0.6446,0.1885 0.3902,0.2869 0.467,0.8408 0.467,1.2904 v 1.861 c 0,0.1069 0.0121,0.274 0.0876,0.3583 0.0762,0.0849 0.2535,0.1165 0.3602,0.1295 l 0.0808,0.01 v 0.2867 h -1.9964 v -0.287 l 0.0812,-0.01 c 0.1072,-0.0126 0.2956,-0.0441 0.3723,-0.1296 0.0756,-0.0842 0.0877,-0.2513 0.0877,-0.3582 v -1.8485 c 0,-0.2021 -0.0171,-0.4674 -0.1082,-0.652 -0.0782,-0.1607 -0.2823,-0.1876 -0.4418,-0.1876 -0.3247,0 -0.6255,0.2178 -0.852,0.4357 v 2.2524 c 0,0.1104 0.0138,0.2674 0.0943,0.3521 0.0834,0.0878 0.2519,0.1215 0.3664,0.1358 l 0.0805,0.01 v 0.2865 h -1.9943 v -0.2869 l 0.081,-0.01 c 0.1102,-0.0132 0.291,-0.0461 0.3709,-0.1322 0.0769,-0.0859 0.0893,-0.2465 0.0893,-0.3556 v -2.1002 c 0,-0.0787 -10e-4,-0.1581 -0.008,-0.2365 -0.004,-0.0483 -0.01,-0.1015 -0.0225,-0.1483 -0.0137,-0.0499 -0.0386,-0.0876 -0.088,-0.106 -0.0889,-0.033 -0.2371,-0.0362 -0.3309,-0.0362 h -0.092 v -0.272 l 1.4531,-0.4756 z m -9.9184,1.4242 c 0,0.3832 -0.0771,0.7544 -0.2441,1.0997 -0.1625,0.3358 -0.3967,0.6106 -0.7075,0.8171 -0.317,0.2098 -0.6742,0.3048 -1.0536,0.3048 -0.361,0 -0.699,-0.0889 -1.0053,-0.2804 -0.3003,-0.1877 -0.5335,-0.442 -0.6997,-0.7547 -0.1662,-0.315 -0.2498,-0.6519 -0.2498,-1.0081 0,-0.376 0.0695,-0.7421 0.2289,-1.0838 0.1514,-0.3245 0.373,-0.5881 0.673,-0.7851 0.3172,-0.206 0.6773,-0.2898 1.0529,-0.2898 0.364,0 0.7153,0.0761 1.036,0.2502 0.3061,0.1652 0.5458,0.3999 0.7162,0.7031 0.178,0.3169 0.253,0.6654 0.253,1.027 z M 95.907,67.4466 c -0.0269,-0.0667 -0.0807,-0.0823 -0.1493,-0.0823 -0.0425,0 -0.0892,0.007 -0.1311,0.0142 -0.0713,0.012 -0.1425,0.0277 -0.2129,0.0442 l -0.113,0.0265 v -0.2911 l 1.5685,-0.5301 v 3.3761 c 0,0.1114 0.0152,0.2705 0.1011,0.3527 0.0979,0.0904 0.3316,0.1224 0.4579,0.1349 l 0.0829,0.008 v 0.2886 h -2.2104 v -0.2888 l 0.0831,-0.008 c 0.1267,-0.0123 0.3707,-0.0444 0.4686,-0.1353 l 9e-4,-8e-4 c 0.0876,-0.0793 0.1019,-0.2416 0.1019,-0.3515 v -2.0646 c 0,-0.1048 -0.002,-0.2116 -0.0134,-0.3159 -0.006,-0.0551 -0.0147,-0.1249 -0.0348,-0.177 z m 0.812,-1.7967 c -0.1047,0.1018 -0.2343,0.1534 -0.3802,0.1534 -0.1438,0 -0.2678,-0.0552 -0.3679,-0.1579 -0.0982,-0.1006 -0.1541,-0.2209 -0.1541,-0.3621 0,-0.1433 0.051,-0.2684 0.1483,-0.3732 l 8e-4,-8e-4 c 0.1012,-0.1063 0.226,-0.1607 0.3729,-0.1607 0.149,0 0.2805,0.0515 0.386,0.157 0.1032,0.1032 0.157,0.2316 0.157,0.3777 0,0.1447 -0.0576,0.2683 -0.1628,0.3666 z M 85.1997,65.4715 c -0.009,-0.0133 -0.0399,-0.0246 -0.0539,-0.0288 -0.0532,-0.0159 -0.1177,-0.0192 -0.1729,-0.0192 h -0.3836 v -0.2947 l 0.0756,-0.0137 c 0.4648,-0.0843 0.924,-0.2119 1.3717,-0.3618 l 0.1212,-0.0406 v 5.2914 c 0,0.1099 0.0143,0.2722 0.1019,0.3515 l 9e-4,8e-4 c 0.0979,0.0909 0.3419,0.123 0.4686,0.1353 l 0.0831,0.008 v 0.2888 h -2.223 v -0.2888 l 0.0831,-0.008 c 0.1267,-0.0123 0.3707,-0.0444 0.4687,-0.1353 l 8e-4,-8e-4 c 0.0877,-0.0793 0.1019,-0.2416 0.1019,-0.3515 v -4.1187 c 0,-0.0717 -0.003,-0.3529 -0.0428,-0.412 l -7e-4,-0.001 z M 74.545,65.8854 c 0,-0.0717 -0.003,-0.3529 -0.0428,-0.412 l -7e-4,-0.001 -6e-4,-9e-4 C 74.4929,65.4582 74.461,65.4469 74.447,65.4427 74.3938,65.4268 74.3293,65.4235 74.2741,65.4235 h -0.3836 v -0.2947 l 0.0756,-0.0137 c 0.4648,-0.0843 0.924,-0.2119 1.3718,-0.3618 l 0.1211,-0.0406 v 5.2914 c 0,0.1099 0.0143,0.2722 0.1019,0.3515 l 9e-4,8e-4 c 0.098,0.0909 0.342,0.123 0.4686,0.1353 l 0.0832,0.008 v 0.2888 h -2.2231 v -0.2888 l 0.0832,-0.008 c 0.1266,-0.0123 0.3706,-0.0444 0.4686,-0.1353 l 8e-4,-8e-4 c 0.0877,-0.0793 0.1019,-0.2416 0.1019,-0.3515 z m -9.6711,4.4714 c 0.098,0.0904 0.3317,0.1224 0.458,0.1349 l 0.0829,0.008 v 0.2886 h -2.2105 v -0.2888 l 0.0832,-0.008 c 0.1266,-0.0123 0.3706,-0.0444 0.4686,-0.1353 l 9e-4,-8e-4 c 0.0876,-0.0793 0.1019,-0.2416 0.1019,-0.3515 v -2.0646 c 0,-0.1048 -0.003,-0.2116 -0.0135,-0.3159 -0.006,-0.0551 -0.0147,-0.1249 -0.0347,-0.177 -0.0269,-0.0667 -0.0808,-0.0823 -0.1494,-0.0823 -0.0425,0 -0.0892,0.007 -0.131,0.0142 -0.0714,0.012 -0.1426,0.0277 -0.213,0.0442 l -0.113,0.0265 v -0.2911 l 1.5685,-0.5301 v 3.3761 c 0,0.1114 0.0152,0.2705 0.1011,0.3527 z m -0.2512,-4.7069 c -0.1048,0.1018 -0.2344,0.1534 -0.3803,0.1534 -0.1437,0 -0.2678,-0.0552 -0.3679,-0.1579 -0.0982,-0.1006 -0.1541,-0.2209 -0.1541,-0.3621 0,-0.1433 0.0511,-0.2684 0.1483,-0.3732 l 8e-4,-8e-4 c 0.1012,-0.1063 0.226,-0.1607 0.3729,-0.1607 0.1491,0 0.2805,0.0515 0.386,0.157 0.1033,0.1032 0.157,0.2316 0.157,0.3777 0,0.1447 -0.0575,0.2683 -0.1627,0.3666 z m -13.617,-0.132 C 50.978,65.4784 50.8896,65.4738 50.848,65.4738 h -0.3563 v -0.3407 l 0.0705,-0.0169 c 0.1748,-0.0419 0.3497,-0.0841 0.5239,-0.1281 0.0484,-0.0122 0.0967,-0.0245 0.1448,-0.0375 0.0188,-0.005 0.0419,-0.0106 0.06,-0.0174 l 0.002,-9e-4 0.6643,-0.2189 v 2.4486 c 0.1061,-0.121 0.2315,-0.2224 0.3769,-0.3035 0.2365,-0.1332 0.4956,-0.1943 0.7667,-0.1943 0.3185,0 0.6073,0.0901 0.8554,0.2914 0.2421,0.1983 0.415,0.4498 0.5306,0.7399 0.1189,0.2961 0.1786,0.6048 0.1786,0.9238 0,0.3852 -0.0904,0.7505 -0.266,1.0932 -0.175,0.3413 -0.4194,0.6215 -0.7375,0.8359 -0.3208,0.2154 -0.6783,0.3177 -1.0646,0.3177 -0.4923,0 -1.0011,-0.0934 -1.4022,-0.3962 l -0.005,-0.004 -0.005,-0.005 c -0.0936,-0.0936 -0.1402,-0.2097 -0.1402,-0.342 v -4.2341 c 0,-0.069 -0.003,-0.3067 -0.0398,-0.3675 z m 103.0927,2.443 c -0.0226,-0.2006 -0.0835,-0.3924 -0.2018,-0.5599 -0.1268,-0.1787 -0.3016,-0.2528 -0.5186,-0.2528 -0.5311,0 -0.7598,0.3452 -0.8483,0.8127 z m -23.4267,0.5921 c -0.1236,0.0467 -0.2471,0.0935 -0.3708,0.1399 -0.1409,0.0528 -0.2776,0.1171 -0.4071,0.1944 -0.1176,0.0694 -0.214,0.1635 -0.2888,0.2776 l -4e-4,6e-4 c -0.0812,0.1218 -0.1104,0.2638 -0.1104,0.4085 0,0.1609 0.0397,0.3086 0.1396,0.436 0.0955,0.1197 0.2234,0.1665 0.3747,0.1665 0.1178,0 0.2805,-0.0633 0.3869,-0.1098 0.0779,-0.034 0.2252,-0.1051 0.2763,-0.1863 z m -21.6136,0.5091 c 0,-0.3059 -0.038,-0.6084 -0.1126,-0.905 -0.0698,-0.2774 -0.1883,-0.5333 -0.3749,-0.7513 -0.1733,-0.2006 -0.3916,-0.2933 -0.6562,-0.2933 -0.1736,0 -0.3327,0.0469 -0.4697,0.1545 -0.144,0.1132 -0.238,0.2664 -0.2996,0.4371 -0.0747,0.2093 -0.1058,0.4292 -0.1058,0.6509 0,0.5094 0.0681,1.0636 0.3083,1.5203 0.1784,0.3391 0.4382,0.5551 0.8312,0.5551 0.2897,0 0.4934,-0.1369 0.6382,-0.3848 0.1765,-0.2987 0.2411,-0.6399 0.2411,-0.9835 z m -57.0764,1.1025 c 0.0174,0.0178 0.0545,0.0399 0.0752,0.0524 0.0573,0.0346 0.1176,0.0661 0.1773,0.0964 0.1514,0.067 0.3108,0.1044 0.4766,0.1044 0.3298,0 0.6026,-0.1107 0.7749,-0.4 0.1853,-0.3096 0.2534,-0.6634 0.2534,-1.0208 0,-0.395 -0.0729,-0.7806 -0.2486,-1.1363 -0.158,-0.3199 -0.4113,-0.4712 -0.7671,-0.4712 -0.2012,0 -0.4353,0.0346 -0.5822,0.1861 l -5e-4,5e-4 c -0.1279,0.1298 -0.1833,0.2854 -0.1833,0.4662 v 1.9241 c 0,0.037 0.003,0.1658 0.0243,0.1982 z M 130.7784,32.5641 V 21.4793 c 0,-0.0944 -0.0665,-0.1888 -0.1727,-0.1888 h -7.691 c -0.1328,0 -0.2125,0.1322 -0.2125,0.3588 v 2.3605 c 0,0.1321 0.093,0.1888 0.2391,0.1888 h 2.2714 v 8.3655 h -2.3511 c -0.0664,0 -0.1594,0.0755 -0.1594,0.1888 v 2.436 c 0,0.0944 0.0531,0.2644 0.1328,0.2644 h 10.2015 c 0.1063,0 0.1727,-0.0378 0.1727,-0.1889 v -2.4926 c 0,-0.0944 -0.0664,-0.2077 -0.1727,-0.2077 z m -14.9834,4.3086 v 0.9442 h 6.6415 v -0.9442 z m -10.4671,-8.5763 c 0.9165,0 2.1253,0.5853 2.1253,2.1338 0,1.4163 -0.9299,1.9828 -1.9527,1.9828 -0.9298,0 -2.0323,-0.4721 -2.0323,-1.9828 0,-1.1141 0.8634,-2.1338 1.8597,-2.1338 z m 2.1253,-1.0009 c -0.7041,-0.8498 -2.298,-1.9639 -3.985,-1.9639 -2.112,0 -3.1747,0.5476 -3.6529,0.7931 -0.4782,0.2266 -2.7496,1.5674 -2.7496,4.1922 0,3.418 3.5068,5.1773 6.6815,5.1773 2.0854,0 3.2543,-1.0229 3.6263,-1.4006 V 35.17 c 0,0.17 0.1195,0.2833 0.2125,0.2833 h 7.8238 c 0.0797,0 0.1195,-0.0756 0.1195,-0.17 v -2.6437 c 0,-0.1888 -0.0266,-0.2832 -0.093,-0.2832 h -2.3245 V 21.4793 c 0,-0.0944 -0.0664,-0.1888 -0.186,-0.1888 h -7.7972 c -0.1328,0 -0.2125,0.1133 -0.2125,0.3588 v 2.3605 c 0,0.1133 0.0929,0.1888 0.2391,0.1888 h 2.298 z M 87.2229,25.3883 c -2.2316,0 -3.1348,1.4918 -3.3606,1.945 h -0.0399 v -1.7562 c 0,-0.0944 -0.0664,-0.1888 -0.1727,-0.1888 h -7.6776 c -0.1329,0 -0.2126,0.1321 -0.2126,0.3588 v 2.3604 c 0,0.1322 0.1063,0.1889 0.2524,0.1889 h 2.1785 v 4.2488 h -2.2449 c -0.0664,0 -0.1727,0.0755 -0.1727,0.1888 v 2.4549 c 0,0.1322 0.0532,0.2644 0.1329,0.2644 h 9.6834 c 0.1063,0 0.1727,-0.0378 0.1727,-0.1889 v -2.5115 c 0,-0.0944 -0.0664,-0.2077 -0.1727,-0.2077 h -1.78 v -0.5476 c 0,-1.5674 0,-3.6068 2.2715,-3.6068 2.1386,0 2.2979,0.5665 2.2979,3.1913 v 0.9631 h -1.926 c -0.1063,0 -0.1727,0.0944 -0.1727,0.2266 v 2.3793 c 0,0.1889 0.0531,0.3022 0.2125,0.3022 h 9.5506 c 0.1594,0 0.2391,-0.0378 0.2391,-0.2077 v -2.4927 c 0,-0.0755 -0.0398,-0.2077 -0.1727,-0.2077 h -2.2581 v -3.5124 c 0,-1.9261 -1.3283,-3.6445 -3.4138,-3.6445 z m -22.5681,3.6634 c 0.279,-0.6043 0.6908,-1.1897 2.2449,-1.1897 1.1955,0 1.7135,0.6232 1.9925,1.1897 z m 3.6795,6.4425 c 4.9811,0 6.0969,-2.8546 6.429,-3.8554 0.0133,-0.0567 -0.0133,-0.2266 -0.1328,-0.2266 h -3.1216 c -0.0398,0 -0.0929,0.0377 -0.1461,0.0944 -0.6376,0.9253 -1.6205,1.1141 -2.7894,1.1141 h -1.3151 c -1.2751,0 -2.6699,-0.491 -2.7761,-1.9828 h 10.1217 c 0.2125,0 0.2922,-0.0566 0.2922,-0.151 V 30.147 c 0,-3.097 -4.1443,-4.8154 -7.0267,-4.8154 h -2.5238 c -0.6908,0 -7.0401,0.2455 -7.0401,5.0608 0,4.7965 5.9774,5.1018 8.5676,5.1018 z M 54.4932,25.3316 c -1.5408,0 -2.9356,1.0386 -3.4802,1.9073 v -1.6618 c 0,-0.0944 -0.0664,-0.1888 -0.1726,-0.1888 h -7.6777 c -0.1328,0 -0.2258,0.1321 -0.2258,0.3588 v 2.3604 c 0,0.1322 0.093,0.1889 0.2391,0.1889 h 2.298 v 4.2488 h -2.3777 c -0.0664,0 -0.1594,0.0755 -0.1594,0.1888 v 2.4927 c 0,0.0944 0.0797,0.2266 0.1594,0.2266 h 10.1483 c 0.093,0 0.2125,-0.0756 0.2125,-0.2077 v -2.4927 c 0,-0.0944 -0.0664,-0.2077 -0.1594,-0.2077 H 51.013 v -2.1716 c 0,-1.303 1.169,-2.0206 1.7667,-2.0206 0.4251,0 0.7837,0.1322 1.1423,0.491 0.3587,0.3399 1.0096,0.9442 1.9261,0.9442 0.9298,0 1.9261,-0.7554 1.9261,-2.115 0,-1.4541 -1.4346,-2.3416 -2.3644,-2.3416 z m -20.4826,6.6471 v -7.2703 h 3.8123 v 2.4738 c 0,0.2266 0.0664,0.2266 0.1461,0.2266 h 4.2772 c 0.1195,0 0.1594,-0.1699 0.1594,-0.3021 v -5.363 c 0,-0.4154 -0.093,-0.4532 -0.2391,-0.4532 H 18.9342 c -0.093,0 -0.1594,0.1322 -0.1594,0.2644 v 5.5707 c 0,0.151 0.093,0.2455 0.2126,0.2455 h 4.4365 c 0.0797,0 0.186,0 0.186,-0.1322 v -2.5305 h 3.5599 v 7.2703 h -3.1747 c -0.0797,0 -0.1461,0.151 -0.1461,0.2455 v 2.9647 c 0,0.1888 0.093,0.2644 0.1461,0.2644 h 13.2964 c 0.1196,0 0.1993,-0.0189 0.1993,-0.1133 v -3.248 c 0,-0.0944 -0.0797,-0.1133 -0.1993,-0.1133 z" />
  <path
     id="path6"
     style="fill:#ffffff;fill-rule:evenodd"
     d="m 22.0273,55.4019 v -0.008 h 0.012 v -0.004 L 23.134,51.24 h 0.7475 l 1.1067,4.1619 v 0.0119 l 0.0119,-0.004 0.004,-0.0199 0.8034,-4.1499 h 0.9271 l -1.2556,5.6742 h -0.8566 l -1.1067,-4.0994 h -0.0119 l -1.1067,4.0994 H 21.5405 L 20.2849,51.24 h 0.9284 z m 10.077,-0.8141 c 0,0.6983 -0.2142,1.2743 -0.6451,1.7278 -0.4297,0.4536 -0.9963,0.6797 -1.7012,0.6811 -0.6904,-0.0014 -1.2464,-0.2275 -1.6653,-0.6824 -0.419,-0.4549 -0.6292,-1.0308 -0.6292,-1.7265 v -1.0215 c 0,-0.693 0.2088,-1.2676 0.6278,-1.7238 0.4177,-0.4562 0.9723,-0.6837 1.664,-0.6837 0.7036,0 1.2716,0.2275 1.7025,0.6837 0.431,0.4562 0.6465,1.0308 0.6465,1.7238 z m -0.9471,-1.0281 c 0,-0.4709 -0.125,-0.8593 -0.3737,-1.1639 -0.2501,-0.3046 -0.5919,-0.4575 -1.0282,-0.4575 -0.4243,0 -0.7542,0.1516 -0.9923,0.4562 -0.2381,0.3033 -0.3564,0.6916 -0.3564,1.1652 v 1.0281 c 0,0.4775 0.1197,0.8699 0.3578,1.1745 0.2394,0.306 0.5706,0.4576 0.9936,0.4576 0.4402,0 0.7821,-0.1516 1.0295,-0.4576 0.246,-0.3046 0.3697,-0.697 0.3697,-1.1745 z m 3.2468,-2.3197 1.6441,4.396 1.648,-4.396 h 1.2277 v 5.6742 h -0.9471 v -1.9326 l 0.0971,-2.494 h -0.0106 l -1.6999,4.4266 H 35.7288 L 34.0369,52.4996 H 34.025 l 0.0984,2.482 v 1.9326 H 33.1763 V 51.24 Z m 8.9318,4.3175 H 41.149 l -0.4668,1.3567 h -0.963 L 41.8048,51.24 h 0.8991 l 2.0577,5.6742 H 43.8 Z M 41.4111,54.798 h 1.6679 l -0.8273,-2.4115 h -0.0106 z m 8.5021,2.1162 h -0.9431 l -2.5285,-4.1579 -0.012,0.004 v 4.1539 H 45.4825 V 51.24 h 0.9471 l 2.5285,4.1539 0.012,-0.004 V 51.24 h 0.9431 z" />
</svg>
