<?xml version="1.0" encoding="UTF-8" standalone="no"?>
<!-- Creator: CorelDRAW X8 -->

<svg
   xmlns:dc="http://purl.org/dc/elements/1.1/"
   xmlns:cc="http://creativecommons.org/ns#"
   xmlns:rdf="http://www.w3.org/1999/02/22-rdf-syntax-ns#"
   xmlns:svg="http://www.w3.org/2000/svg"
   xmlns="http://www.w3.org/2000/svg"
   xmlns:sodipodi="http://sodipodi.sourceforge.net/DTD/sodipodi-0.dtd"
   xmlns:inkscape="http://www.inkscape.org/namespaces/inkscape"
   xml:space="preserve"
   width="196.21613mm"
   height="99.404388mm"
   version="1.1"
   style="clip-rule:evenodd;fill-rule:evenodd;image-rendering:optimizeQuality;shape-rendering:geometricPrecision;text-rendering:geometricPrecision"
   viewBox="0 0 19621.613 9940.4388"
   id="svg3336"
   inkscape:version="0.91 r13725"
   sodipodi:docname="logo.svg"><metadata
     id="metadata3410"><rdf:RDF><cc:Work
         rdf:about=""><dc:format>image/svg+xml</dc:format><dc:type
           rdf:resource="http://purl.org/dc/dcmitype/StillImage" /><dc:title></dc:title></cc:Work></rdf:RDF></metadata><sodipodi:namedview
     pagecolor="#ffffff"
     bordercolor="#666666"
     borderopacity="1"
     objecttolerance="10"
     gridtolerance="10"
     guidetolerance="10"
     inkscape:pageopacity="0"
     inkscape:pageshadow="2"
     inkscape:window-width="1366"
     inkscape:window-height="705"
     id="namedview3408"
     showgrid="false"
     fit-margin-top="0"
     fit-margin-left="0"
     fit-margin-right="0"
     fit-margin-bottom="0"
     inkscape:zoom="0.50933034"
     inkscape:cx="343.38172"
     inkscape:cy="-87.684076"
     inkscape:window-x="-8"
     inkscape:window-y="-8"
     inkscape:window-maximized="1"
     inkscape:current-layer="svg3336" /><defs
     id="defs3338"><style
       type="text/css"
       id="style3340"><![CDATA[
    .fil0 {fill:#FEFEFE}
    .fil2 {fill:#4F007D}
    .fil8 {fill:#FEFEFE;fill-rule:nonzero}
    .fil7 {fill:#4F007D;fill-rule:nonzero}
    .fil4 {fill:#A10082;fill-rule:nonzero}
    .fil6 {fill:#FEFEFE;fill-rule:nonzero}
    .fil5 {fill:white;fill-rule:nonzero}
    .fil3 {fill:url(#id0)}
    .fil1 {fill:url(#id1)}
   ]]></style><linearGradient
       id="id0"
       gradientUnits="userSpaceOnUse"
       x1="5585.7402"
       y1="8390.8799"
       x2="14947.5"
       y2="8390.8799"><stop
         offset="0"
         style="stop-opacity:1; stop-color:#E31E24"
         id="stop3343" /><stop
         offset="0.0784314"
         style="stop-opacity:1; stop-color:#E31E24"
         id="stop3345" /><stop
         offset="0.180392"
         style="stop-opacity:1; stop-color:#FFED00"
         id="stop3347" /><stop
         offset="0.34902"
         style="stop-opacity:1; stop-color:#008DD2"
         id="stop3349" /><stop
         offset="0.411765"
         style="stop-opacity:1; stop-color:#393185"
         id="stop3351" /><stop
         offset="0.568627"
         style="stop-opacity:1; stop-color:#AE4A84"
         id="stop3353" /><stop
         offset="0.678431"
         style="stop-opacity:1; stop-color:#FFED00"
         id="stop3355" /><stop
         offset="0.74902"
         style="stop-opacity:1; stop-color:#E31E24"
         id="stop3357" /><stop
         offset="0.858824"
         style="stop-opacity:1; stop-color:#00A0E3"
         id="stop3359" /><stop
         offset="0.941176"
         style="stop-opacity:1; stop-color:#FFED00"
         id="stop3361" /><stop
         offset="1"
         style="stop-opacity:1; stop-color:#FEFEFE"
         id="stop3363" /></linearGradient><linearGradient
       id="id1"
       gradientUnits="userSpaceOnUse"
       x1="9957.75"
       y1="6047.0098"
       x2="11813.3"
       y2="6087.8799"><stop
         offset="0"
         style="stop-opacity:1; stop-color:#4F007D"
         id="stop3366" /><stop
         offset="0.290196"
         style="stop-opacity:1; stop-color:#E5097F"
         id="stop3368" /><stop
         offset="0.34902"
         style="stop-opacity:1; stop-color:#FFED00"
         id="stop3370" /><stop
         offset="0.4"
         style="stop-opacity:1; stop-color:#E5097F"
         id="stop3372" /><stop
         offset="0.509804"
         style="stop-opacity:1; stop-color:#393185"
         id="stop3374" /><stop
         offset="1"
         style="stop-opacity:1; stop-color:white"
         id="stop3376" /></linearGradient></defs><g
     id="Слой_x0020_1"
     transform="translate(-809.00487,-2434.922)"><metadata
       id="CorelCorpID_0Corel-Layer" /><path
       class="fil0"
       d="m 13312,3819 c -1123,-123 -2255,-262 -3397,-289 -27,0 -54,-1 -81,-1 -928,116 -1841,348 -2696,701 -1169,484 -2251,1145 -3034,1906 -249,675 -230,1386 77,2054 490,1066 1490,2072 2978,2726 1295,569 2782,816 4341,819 541,-17 1079,-59 1601,-132 585,-127 1148,-292 1670,-494 2177,-1119 2479,-3510 1690,-5125 -505,-1033 -1406,-1910 -3023,-2327 -1086,-217 -2233,-272 -3363,-156 1090,40 2175,169 3249,291 30,3 17,30 -12,27 z"
       id="path3380"
       inkscape:connector-curvature="0"
       style="fill:#fefefe" /><g
       id="Афиша_x0020_Город_x0020_кривые.cdr"><path
         class="fil1"
         d="M 9531,7205 C 9270,3769 12870,2716 12269,6514 13686,3376 8371,2596 9531,7205 Z"
         id="path3383"
         inkscape:connector-curvature="0"
         style="fill:url(#id1)" /><path
         class="fil2"
         d="m 11772,6079 c 329,95 466,583 305,1088 -161,505 -558,836 -887,741 -329,-97 -465,-584 -305,-1089 161,-505 558,-837 887,-740 z"
         id="path3385"
         inkscape:connector-curvature="0"
         style="fill:#4f007d" /><path
         class="fil2"
         d="M 9602,7095 C 8875,4067 14164,2871 12437,6608 14529,2594 8325,4041 9602,7095 Z"
         id="path3387"
         inkscape:connector-curvature="0"
         style="fill:#4f007d" /><polygon
         class="fil3"
         points="5586,8479 5586,8303 14948,8303 14948,8479 "
         id="polygon3389"
         style="fill:url(#id0)" /><path
         class="fil2"
         d="m 9698,6649 c 225,-136 565,41 760,395 195,355 171,752 -53,888 -225,137 -565,-40 -760,-394 -195,-355 -171,-752 53,-889 z"
         id="path3391"
         inkscape:connector-curvature="0"
         style="fill:#4f007d" /><path
         class="fil4"
         d="m 6778,7634 c 0,19 -13,28 -39,28 -24,0 -61,-1 -110,-5 -49,-3 -86,-5 -111,-5 -16,0 -31,1 -45,1 -65,2 -164,6 -295,12 -5,0 -11,-2 -16,-6 -7,-6 -10,-12 -10,-20 0,-20 6,-33 19,-40 3,-2 15,-5 33,-8 5,-1 24,-5 61,-11 7,-1 15,-6 22,-14 10,-9 15,-22 15,-36 0,-25 -6,-97 -17,-214 -4,-44 -7,-66 -10,-66 -5,0 -41,70 -106,211 -66,141 -104,212 -112,212 -11,0 -54,-68 -129,-201 -75,-134 -117,-201 -127,-201 -10,0 -14,10 -14,29 0,72 11,133 34,184 24,55 58,89 100,101 22,7 33,21 33,43 0,22 -12,32 -36,32 -17,0 -43,-1 -77,-4 -34,-3 -60,-4 -78,-4 -15,0 -40,4 -75,10 -34,7 -59,11 -74,11 -23,0 -34,-12 -34,-34 0,-19 11,-33 34,-41 20,-6 45,-15 74,-29 15,-13 26,-92 34,-239 5,-99 7,-191 7,-274 0,-178 -23,-267 -70,-267 -7,0 -17,-1 -29,-2 -13,-2 -23,-2 -30,-2 -5,0 -11,-5 -19,-13 -8,-8 -11,-17 -11,-25 0,-30 13,-46 39,-49 20,-2 47,-2 82,1 43,3 71,5 83,5 12,0 29,-1 52,-2 23,-1 40,-2 51,-2 8,0 15,0 19,1 23,2 59,47 109,135 32,57 73,138 123,243 42,87 63,130 64,130 7,0 22,-26 46,-77 14,-32 28,-63 43,-94 2,-7 43,-92 122,-254 25,-53 50,-80 75,-80 11,0 28,1 50,1 23,1 39,2 51,2 17,0 44,-2 79,-6 35,-4 61,-5 79,-5 6,0 11,3 17,9 8,6 11,13 11,21 0,29 -8,45 -25,49 -26,2 -53,4 -79,6 -31,5 -47,27 -45,66 10,256 15,397 15,423 0,24 -1,67 -4,127 -2,50 -2,91 -1,124 0,25 15,43 43,54 4,2 30,8 80,20 11,2 19,5 22,9 4,5 7,15 7,30 z m 1099,-926 c 1,27 -7,45 -23,56 -15,5 -30,11 -44,16 -22,11 -37,26 -45,47 -6,15 -11,43 -15,83 -2,24 -3,75 -3,155 0,162 -25,301 -74,416 -56,130 -133,195 -229,195 -112,0 -202,-39 -271,-120 -77,-90 -118,-222 -123,-397 -1,-17 -1,-35 -1,-53 0,-27 1,-67 3,-119 2,-53 3,-93 3,-120 0,-30 -10,-51 -31,-62 -7,-5 -28,-9 -62,-14 -23,-4 -38,-9 -46,-14 -7,-7 -11,-21 -11,-42 0,-23 13,-35 38,-35 27,0 67,2 121,5 54,3 94,4 121,4 10,0 42,0 97,0 39,0 71,0 97,0 9,1 23,0 41,-1 19,-2 32,-3 40,-3 23,0 34,10 34,30 0,17 -6,31 -19,41 -11,8 -22,13 -34,13 -38,1 -57,23 -57,66 0,26 1,66 3,118 3,52 4,92 4,118 0,17 0,43 1,77 1,35 1,61 1,78 0,60 10,115 31,163 24,55 53,82 88,82 49,0 87,-40 116,-119 24,-68 36,-143 36,-229 0,-67 -4,-133 -14,-198 -13,-92 -33,-142 -60,-149 -14,-3 -28,-5 -43,-8 -19,-6 -28,-17 -28,-36 0,-32 12,-49 37,-49 l 155,2 c 17,0 41,-3 73,-8 32,-6 56,-8 72,-8 6,0 12,6 21,19 z m 680,603 c -2,104 -30,193 -86,266 -53,70 -112,104 -178,102 -40,-1 -90,-14 -148,-39 -11,-9 -26,-17 -44,-26 -7,0 -12,3 -15,6 -3,5 -4,12 -4,23 1,40 2,56 3,48 -2,19 -12,28 -30,28 -8,-1 -15,-16 -22,-45 -45,-205 -67,-315 -67,-327 1,-25 8,-36 22,-36 8,0 19,16 37,50 13,32 28,65 44,101 44,75 110,113 200,116 23,1 47,-2 70,-9 35,-8 52,-23 52,-43 0,-23 -25,-47 -75,-70 -35,-15 -64,-25 -87,-28 -72,-12 -131,-53 -175,-122 -44,-69 -66,-153 -65,-254 3,-248 117,-368 343,-362 31,10 76,21 134,31 15,1 26,-15 34,-48 4,-21 16,-32 34,-32 4,0 10,3 16,9 7,6 10,13 10,20 0,9 -2,26 -8,52 -2,10 -15,66 -39,169 -17,69 -24,113 -25,131 0,13 6,33 18,63 16,39 27,69 34,91 11,43 17,88 17,135 z m -134,-339 0,-30 c 1,-42 -24,-81 -73,-114 -39,-25 -70,-38 -93,-39 -18,0 -39,3 -62,10 -30,10 -45,23 -46,40 0,14 9,26 28,37 13,8 24,13 35,15 19,6 59,22 117,48 54,25 82,38 83,38 2,-2 6,-4 11,-5 z m 940,653 c 0,25 -11,38 -30,37 -65,-2 -151,-6 -259,-10 -38,-1 -90,0 -157,3 -80,5 -132,7 -156,7 -5,0 -9,-1 -14,-4 -6,-5 -9,-13 -9,-24 0,-16 4,-27 13,-32 3,-2 14,-5 32,-9 13,-1 34,-4 60,-9 34,-8 51,-26 52,-56 0,-43 -1,-104 -4,-183 -3,-86 -4,-149 -4,-188 0,-42 2,-138 6,-289 0,-36 -5,-60 -15,-74 -9,-13 -25,-20 -48,-21 -14,-1 -32,-2 -51,-2 -16,-1 -26,-5 -31,-11 -5,-7 -7,-19 -7,-36 1,-18 12,-27 36,-26 46,2 92,5 139,7 90,3 136,5 139,5 133,-7 221,-10 263,-9 22,0 32,10 32,29 0,18 -7,29 -20,34 -3,2 -17,4 -44,8 -29,4 -48,10 -58,18 -11,9 -17,26 -18,49 0,5 2,42 5,110 4,71 6,131 6,181 0,44 -1,104 -4,182 -3,85 -5,145 -5,182 -1,30 2,50 9,61 6,11 17,17 35,17 3,0 12,2 29,7 17,5 27,7 30,7 32,1 49,14 48,39 z m 3498,-305 c 0,50 -3,101 -9,155 -7,50 -14,101 -20,152 -3,23 -25,35 -66,35 -22,0 -64,-2 -127,-4 -63,-3 -106,-4 -128,-4 -132,0 -239,3 -321,10 l -87,6 c -6,0 -11,-5 -17,-14 -4,-8 -7,-16 -6,-23 0,-17 5,-28 17,-34 5,-3 15,-5 30,-6 10,0 28,0 53,-1 37,-2 56,-33 55,-91 -1,-19 -3,-73 -7,-160 -3,-70 -4,-135 -4,-196 0,-1 1,-45 2,-130 2,-86 3,-135 3,-147 0,-31 -10,-56 -31,-74 -7,-7 -33,-14 -78,-22 -36,-7 -54,-20 -54,-38 0,-24 7,-36 21,-36 -6,0 25,2 94,7 69,4 142,7 220,7 109,0 190,-3 245,-7 55,-5 104,-7 147,-7 18,0 30,19 35,58 1,11 1,41 1,90 0,37 -4,86 -13,146 -3,26 -11,39 -23,41 -5,1 -10,-2 -15,-9 -5,-6 -8,-16 -8,-28 0,-16 -2,-29 -5,-39 -14,-55 -43,-96 -85,-122 -32,-21 -68,-32 -108,-32 -4,0 -8,3 -12,9 -4,7 -6,13 -6,20 0,24 1,51 2,81 1,60 2,105 2,135 0,27 9,40 27,40 2,0 11,-1 29,-5 16,-3 26,-5 28,-5 25,0 48,6 68,17 15,7 23,35 23,82 1,30 -4,82 -15,156 -5,32 -12,48 -22,48 -11,0 -16,-8 -17,-22 0,-5 0,-11 0,-20 0,-11 0,-19 0,-23 0,-30 -9,-63 -28,-97 -22,-38 -46,-58 -74,-58 -4,0 -9,6 -15,17 -1,48 -3,121 -7,220 -3,99 -5,146 -5,142 0,20 5,30 17,30 40,0 90,-33 151,-99 42,-45 71,-86 90,-123 5,-10 9,-25 12,-44 3,-19 9,-29 19,-29 7,0 13,7 17,19 3,9 5,18 5,26 z m 1060,301 c 0,27 -11,41 -31,41 -18,0 -44,-2 -77,-4 -37,-3 -63,-4 -78,-5 -41,0 -95,-1 -162,-1 -21,0 -50,1 -91,3 -40,2 -71,3 -91,3 -19,0 -30,-11 -30,-35 0,-20 9,-33 26,-37 22,-5 37,-14 44,-25 0,-1 1,-2 1,-3 0,-18 -10,-49 -30,-93 -20,-46 -35,-69 -46,-69 -12,0 -30,20 -53,60 -24,40 -35,70 -35,90 0,23 17,37 53,40 12,2 18,12 18,33 0,26 -13,39 -41,39 -4,0 -10,0 -18,0 -7,0 -12,0 -14,0 -12,0 -30,1 -54,2 -24,1 -42,1 -54,1 -11,0 -27,1 -48,4 -21,2 -37,3 -48,3 -20,0 -30,-13 -30,-39 0,-13 4,-25 15,-35 7,-6 17,-12 32,-18 16,-6 27,-11 34,-17 16,-14 54,-56 112,-128 62,-75 93,-118 93,-129 0,-5 -19,-58 -57,-157 -32,-84 -68,-188 -109,-310 -11,-34 -29,-56 -53,-66 -32,-13 -48,-25 -48,-37 0,-25 8,-37 22,-37 16,0 37,0 63,2 31,2 52,3 62,4 104,3 185,5 244,5 11,0 28,-2 51,-5 23,-3 40,-5 51,-5 17,0 26,11 26,30 0,15 -9,28 -26,40 -18,11 -26,23 -26,33 0,10 8,34 26,74 17,40 29,60 35,60 9,0 23,-18 41,-54 17,-35 26,-60 26,-76 0,-21 -9,-32 -26,-35 -12,-2 -19,-5 -22,-8 -8,-6 -11,-16 -11,-32 0,-15 14,-22 43,-22 l 61,0 c 15,0 34,-2 56,-5 26,-3 45,-5 56,-6 7,0 20,-3 38,-6 17,-4 30,-5 38,-5 6,0 12,3 17,11 5,8 7,17 7,27 0,20 -7,34 -23,42 -1,2 -14,5 -37,12 -18,5 -35,17 -52,34 -18,19 -49,57 -95,114 -53,66 -79,104 -80,114 13,35 33,87 60,156 13,33 33,89 58,166 25,73 44,128 60,165 4,10 27,23 69,39 39,15 58,34 58,57 z m 1042,-607 c 0,14 -4,27 -12,38 -7,11 -16,17 -24,16 -12,0 -20,-16 -26,-48 -4,-23 -9,-40 -14,-52 -4,-8 -15,-23 -31,-46 -22,-30 -48,-55 -77,-75 -30,-21 -55,-31 -78,-32 -17,-1 -25,14 -26,47 4,71 8,177 11,317 -1,44 -3,112 -9,205 -4,78 -5,124 -4,137 2,32 22,48 60,50 13,0 41,7 84,21 22,7 33,26 33,55 0,19 -13,29 -40,29 -2,0 -18,-2 -46,-4 -30,-2 -45,-4 -47,-4 -6,0 -35,-3 -87,-8 -46,-4 -75,-6 -87,-6 -44,2 -112,7 -204,15 -82,8 -128,12 -135,11 -17,-1 -25,-12 -25,-36 0,-21 12,-35 37,-43 21,-3 52,-9 91,-17 27,-8 40,-23 40,-46 0,-27 -2,-79 -5,-156 -4,-81 -6,-135 -6,-162 0,-59 2,-119 6,-180 3,-72 6,-119 6,-142 1,-53 -7,-80 -26,-81 -37,-1 -79,15 -126,50 -27,20 -48,44 -62,72 -9,18 -16,45 -21,82 -3,27 -13,41 -30,40 -20,0 -30,-32 -29,-94 l 2,-131 c 1,-57 8,-93 20,-109 13,-15 44,-22 93,-22 -5,0 44,1 148,5 88,3 171,3 249,1 49,-1 121,-4 217,-8 87,-4 131,-5 132,-5 21,0 33,16 38,47 1,7 4,68 10,182 l 0,87 z"
         id="path3393"
         inkscape:connector-curvature="0"
         style="fill:#a10082;fill-rule:nonzero" /><path
         class="fil5"
         d="m 10127,7356 c 0,34 -5,70 -16,108 -40,142 -116,214 -230,216 -220,5 -330,-171 -330,-527 0,-147 35,-262 103,-346 63,-75 141,-113 236,-113 30,0 68,9 111,26 35,15 53,22 56,22 14,0 23,-13 27,-37 4,-24 12,-36 23,-36 16,0 24,28 24,83 0,41 -5,105 -16,193 -13,104 -26,156 -38,156 -14,0 -21,-9 -21,-26 0,-4 1,-10 2,-19 2,-8 2,-14 2,-18 0,-51 -8,-102 -27,-153 -21,-57 -46,-86 -75,-86 -20,0 -35,35 -46,105 -8,51 -12,99 -12,144 0,335 22,502 66,502 26,0 48,-21 68,-62 9,-19 23,-57 41,-115 13,-41 24,-62 32,-62 13,0 20,15 20,45 z"
         id="path3395"
         inkscape:connector-curvature="0"
         style="fill:#ffffff;fill-rule:nonzero" /><path
         class="fil6"
         d="m 11952,6728 c 0,26 -11,43 -32,50 -20,4 -40,9 -60,13 -22,7 -32,21 -32,44 0,15 1,38 2,67 1,29 2,51 2,66 0,93 -3,310 -12,651 0,16 -4,32 -11,48 -7,17 -15,26 -25,26 -20,0 -88,-75 -204,-226 -117,-149 -177,-225 -181,-225 -6,0 -10,10 -10,29 0,52 7,104 21,157 16,58 37,99 62,121 1,1 19,10 55,27 26,12 38,26 38,43 0,10 -3,19 -9,27 -7,7 -13,11 -19,11 -17,0 -43,-1 -78,-2 -35,-1 -61,-2 -78,-2 -16,0 -41,2 -74,5 -33,2 -57,4 -74,4 -20,0 -31,-10 -31,-29 0,-23 14,-40 42,-49 38,-12 58,-19 59,-20 10,-9 17,-31 20,-66 8,-81 12,-179 12,-295 0,-129 -6,-243 -18,-343 -1,-11 -6,-24 -15,-38 -10,-14 -18,-22 -24,-22 4,0 -18,0 -65,0 -8,0 -15,-3 -24,-8 -10,-7 -15,-15 -15,-25 0,-39 18,-58 55,-58 27,0 69,0 124,-1 55,-1 96,-1 123,-1 6,0 12,1 17,3 16,6 63,59 139,159 74,99 113,149 115,149 7,0 10,-9 10,-28 0,-32 -8,-66 -23,-103 -14,-33 -31,-59 -49,-78 -8,-9 -19,-15 -33,-20 -17,-5 -29,-10 -35,-14 -10,-7 -15,-19 -15,-35 0,-20 10,-30 29,-30 60,1 93,2 101,2 25,0 59,-3 100,-9 34,-4 68,-9 101,-13 6,-1 10,3 14,12 3,10 5,18 5,26 z"
         id="path3397"
         inkscape:connector-curvature="0"
         style="fill:#fefefe;fill-rule:nonzero" /><path
         class="fil7"
         d="m 5914,9071 c 35,0 65,6 89,19 25,13 46,30 62,50 16,21 28,44 36,71 9,27 13,55 13,84 l -312,0 c -27,0 -41,15 -41,45 0,30 14,45 41,45 l 282,0 c 20,0 30,10 30,28 0,14 -4,28 -11,41 -7,14 -18,25 -34,35 -15,9 -36,17 -61,23 -26,6 -57,9 -94,9 -47,0 -87,-7 -120,-22 -33,-15 -56,-32 -68,-50 -7,-10 -11,-19 -11,-28 l -89,0 0,26 c 0,10 6,24 18,43 11,18 29,37 52,55 24,17 53,33 90,46 36,14 79,20 128,20 61,0 110,-7 148,-21 37,-13 66,-31 87,-53 22,-21 35,-45 43,-72 7,-27 10,-53 10,-80 l 0,-89 c 0,-41 -5,-81 -17,-119 -11,-37 -28,-71 -52,-100 -23,-29 -53,-52 -89,-70 -37,-17 -80,-26 -130,-26 -42,0 -78,6 -110,20 -31,12 -57,28 -78,46 -21,19 -37,38 -47,57 -11,20 -16,37 -16,51 l 0,13 89,0 c 0,-15 5,-28 13,-40 10,-11 22,-22 37,-30 15,-9 32,-16 52,-20 19,-5 40,-7 60,-7 z m 642,0 c -49,0 -86,12 -113,34 -27,23 -47,51 -60,84 -13,32 -20,67 -23,103 -3,36 -4,68 -4,94 l 0,29 c 0,39 4,67 12,83 9,15 28,23 58,23 l 220,0 c 36,0 64,-7 82,-19 18,-14 27,-40 27,-79 l 89,0 0,45 c 0,22 -5,42 -15,61 -9,17 -22,32 -37,44 -16,13 -34,22 -54,28 -20,7 -41,10 -63,10 l -280,0 c -18,0 -34,-4 -50,-12 -15,-8 -29,-19 -40,-33 -12,-13 -21,-29 -27,-46 -7,-17 -10,-35 -10,-53 l 0,-52 c 0,-50 3,-101 10,-152 6,-52 20,-98 40,-140 20,-42 50,-76 88,-102 38,-27 88,-40 150,-40 44,0 82,8 114,23 32,15 59,35 80,60 23,25 40,54 52,87 13,33 23,68 29,106 l -88,0 c -5,-24 -11,-47 -18,-69 -7,-22 -18,-42 -31,-59 -13,-18 -31,-32 -53,-42 -22,-11 -50,-16 -85,-16 z m 771,91 c -11,-21 -26,-40 -43,-57 -18,-16 -38,-28 -63,-34 l -13,0 0,540 -89,0 0,-540 -12,0 c -26,6 -47,18 -65,35 -18,17 -32,36 -44,56 l -88,0 c 9,-27 21,-52 36,-75 16,-22 34,-42 56,-58 21,-15 44,-27 70,-35 26,-8 57,-13 91,-13 34,0 64,5 91,14 27,9 51,21 71,37 21,16 39,35 54,58 15,22 27,46 37,72 l -89,0 z m 443,-181 c 57,0 103,12 140,36 37,25 66,56 88,95 22,39 37,82 46,130 9,48 13,96 13,144 0,35 -6,58 -19,71 -12,13 -35,19 -68,19 l -399,0 c 0,20 3,42 9,67 7,24 19,47 36,68 l -93,0 c -9,-9 -16,-20 -22,-32 -5,-12 -9,-24 -12,-37 -3,-13 -5,-25 -6,-37 -1,-11 -1,-21 -1,-29 l 0,-90 c 0,-47 3,-95 10,-143 7,-49 20,-92 41,-131 20,-39 50,-70 88,-95 37,-24 87,-36 149,-36 z m 0,90 c -43,0 -78,10 -105,28 -26,20 -46,44 -60,74 -14,30 -23,63 -28,101 -4,38 -6,75 -6,112 l 366,0 c 12,0 21,-3 25,-8 5,-6 7,-15 7,-29 0,-28 -3,-58 -10,-90 -6,-33 -16,-63 -32,-91 -15,-27 -35,-50 -61,-69 -26,-19 -58,-28 -96,-28 z m 641,-90 c 58,0 106,15 143,44 38,29 67,66 88,110 21,44 36,93 45,146 7,53 11,103 11,151 l 0,44 c 0,7 0,17 -1,29 -1,11 -3,24 -6,36 -3,13 -7,26 -12,38 -6,12 -13,23 -21,32 l -94,0 c 17,-21 29,-44 36,-68 6,-25 9,-47 9,-67 l -398,0 c 0,20 4,42 10,67 6,24 19,47 36,68 l -93,0 c -10,-9 -17,-20 -22,-32 -5,-12 -9,-25 -12,-38 -3,-12 -5,-25 -6,-36 -1,-12 -2,-22 -2,-29 l 0,-44 c 0,-49 4,-99 13,-152 7,-53 22,-102 43,-146 22,-44 51,-81 88,-110 38,-28 86,-43 145,-43 z m 0,90 c -44,0 -79,13 -105,38 -26,26 -46,56 -60,91 -14,34 -23,69 -28,104 -4,35 -7,63 -7,82 l 398,0 c 0,-19 -2,-47 -6,-82 -5,-35 -14,-70 -28,-104 -15,-35 -35,-65 -61,-91 -26,-25 -60,-38 -103,-38 z m 673,-90 c 59,0 107,14 144,43 37,28 66,63 88,105 21,41 36,85 43,132 8,47 12,88 12,125 l 33,0 0,90 c 0,7 -1,17 -2,29 -1,11 -2,24 -4,36 -3,13 -6,26 -11,38 -4,12 -10,23 -16,32 l -93,0 c 13,-21 23,-44 29,-68 5,-25 8,-47 8,-67 l -462,0 c 0,20 3,42 10,67 6,24 18,47 35,68 l -93,0 c -9,-9 -16,-20 -21,-32 -6,-12 -10,-25 -13,-38 -3,-12 -5,-25 -5,-36 -1,-12 -2,-22 -2,-29 l 0,-90 33,0 c 0,-37 4,-78 11,-125 8,-47 23,-91 44,-132 21,-42 51,-77 88,-105 37,-29 85,-43 144,-43 z m 0,90 c -43,0 -78,13 -104,38 -26,26 -46,56 -60,91 -14,34 -23,69 -28,104 -4,35 -6,63 -6,82 l 396,0 c 0,-19 -2,-47 -7,-82 -4,-35 -13,-70 -27,-104 -14,-35 -34,-65 -60,-91 -26,-25 -61,-38 -104,-38 z m 794,32 c -17,-16 -31,-32 -43,-48 -12,-15 -18,-32 -18,-50 l 0,-24 c 46,10 84,30 114,60 29,29 53,65 70,107 17,42 29,87 35,137 7,50 10,98 10,147 l 0,44 c 0,8 0,18 -1,29 -1,12 -3,25 -6,37 -3,13 -7,26 -13,38 -4,11 -12,22 -21,31 l -93,0 c 16,-21 28,-44 35,-68 7,-25 10,-47 10,-67 l -398,0 c 0,20 3,42 9,67 7,24 19,47 36,68 l -94,0 c -8,-9 -16,-20 -21,-31 -5,-12 -9,-25 -12,-38 -3,-12 -5,-25 -6,-37 -1,-11 -1,-21 -1,-29 l 0,-44 c 0,-49 3,-97 9,-147 6,-50 18,-95 34,-137 17,-42 40,-78 69,-107 29,-30 66,-50 113,-60 l 0,24 c 0,35 -17,67 -50,98 -14,15 -28,33 -39,54 -11,21 -20,45 -27,70 -7,25 -13,51 -16,79 -3,27 -4,54 -4,80 l 398,0 c 0,-26 -1,-53 -4,-80 -2,-28 -7,-54 -12,-79 -6,-25 -15,-49 -25,-70 -10,-21 -23,-39 -38,-54 z m 324,325 0,1 c 0,14 1,26 3,37 3,11 9,20 18,29 10,8 25,14 45,19 19,5 46,7 80,7 34,0 61,-2 81,-7 20,-4 35,-10 44,-19 10,-8 16,-18 19,-29 2,-11 4,-24 4,-38 0,-16 -3,-35 -9,-58 -7,-22 -16,-44 -28,-66 -13,-22 -28,-42 -47,-59 -18,-17 -39,-29 -64,-35 -25,6 -47,17 -65,34 -19,17 -34,37 -46,59 -12,22 -20,44 -26,66 -6,23 -9,43 -9,59 z m 146,183 c -35,0 -65,-2 -89,-6 -25,-4 -46,-9 -63,-16 -17,-6 -31,-14 -41,-23 -11,-8 -19,-17 -26,-27 -6,-8 -10,-19 -13,-31 -3,-12 -4,-25 -4,-38 l 0,-443 c 14,-18 28,-30 41,-37 13,-5 29,-9 49,-9 l 0,220 c 18,-21 40,-40 64,-56 23,-17 51,-25 82,-25 34,0 66,11 95,32 29,23 53,50 75,81 21,32 37,66 49,102 12,35 18,67 18,94 l 0,42 c 0,13 -3,25 -7,36 -5,11 -10,22 -17,32 -14,20 -37,37 -70,51 -32,14 -80,21 -143,21 z m 253,0 0,-584 c 15,-18 28,-30 41,-37 13,-5 29,-9 48,-9 l 0,587 c -14,18 -27,29 -40,35 -13,5 -29,8 -49,8 z m 690,0 -93,0 c 17,-21 29,-44 35,-68 7,-25 10,-47 10,-67 l 0,-239 c 0,-30 -2,-57 -6,-80 -4,-23 -10,-46 -19,-69 l -328,523 -93,0 c -9,-9 -16,-20 -21,-32 -6,-12 -10,-25 -12,-38 -3,-12 -5,-25 -6,-36 -1,-12 -2,-22 -2,-29 l 0,-156 c 0,-30 1,-61 3,-92 3,-32 6,-63 11,-93 5,-30 12,-58 20,-85 7,-26 17,-49 29,-69 l 89,0 c -8,17 -15,34 -22,52 -7,17 -12,35 -17,54 -10,38 -17,76 -20,111 -3,34 -5,76 -5,122 l 0,187 6,0 330,-526 89,0 c 14,18 25,40 34,66 8,26 15,53 19,83 4,30 7,61 8,93 2,33 2,65 2,97 l 0,156 c 0,7 0,17 -1,29 -1,11 -3,24 -6,36 -3,13 -7,26 -13,38 -5,12 -12,23 -21,32 z m -345,-720 131,0 c 18,14 30,28 36,41 6,13 9,29 9,49 l -133,0 c -17,-14 -29,-28 -34,-41 -6,-12 -9,-29 -9,-49 z m 981,90 94,0 c -9,11 -16,23 -21,35 -6,13 -10,25 -13,38 -4,12 -6,24 -8,35 -1,11 -2,20 -2,27 l 0,360 c 0,7 2,14 6,19 4,6 9,10 14,14 6,4 13,7 20,9 6,2 13,3 19,3 l 215,0 c 13,0 26,-4 39,-12 13,-7 19,-18 19,-31 l 0,-364 c 0,-7 0,-16 -2,-27 -1,-11 -4,-23 -7,-35 -3,-11 -8,-24 -14,-37 -6,-12 -13,-24 -22,-34 l 93,0 c 18,18 29,40 34,66 5,26 7,48 7,68 l 0,406 10,0 c 11,0 21,2 29,7 9,5 17,10 25,17 l 0,116 c -13,-22 -32,-36 -56,-42 -24,-5 -56,-8 -95,-8 l -279,0 c -53,0 -90,-12 -112,-37 -22,-24 -34,-57 -34,-98 l 0,-360 c 0,-20 3,-43 8,-69 5,-26 16,-48 33,-66 z m 890,90 c -34,0 -64,7 -88,21 -24,14 -44,31 -60,53 -15,22 -26,46 -34,72 -7,26 -11,53 -11,79 l 298,0 c 15,0 27,5 35,14 8,9 13,19 13,31 0,12 -5,23 -13,31 -8,10 -20,14 -35,14 l -277,0 c -19,0 -28,10 -28,30 l 0,49 c 0,16 1,28 3,37 2,8 7,14 15,19 l 182,0 c 47,0 87,-7 121,-22 33,-15 56,-32 68,-50 6,-9 10,-19 10,-28 l 89,0 0,26 c 0,11 -6,26 -17,45 -11,19 -28,37 -51,54 -24,18 -54,33 -89,46 -37,13 -80,19 -131,19 l -248,0 c -9,-9 -16,-20 -22,-32 -5,-12 -9,-24 -12,-37 -3,-13 -5,-25 -6,-37 -1,-11 -1,-21 -1,-29 l 0,-90 c 0,-48 4,-96 12,-144 8,-48 23,-91 44,-130 21,-39 51,-70 88,-95 37,-24 86,-36 145,-36 45,0 83,6 115,19 32,12 58,27 78,44 21,18 35,37 45,57 9,21 14,38 14,54 l 0,13 -89,0 c 0,-16 -4,-29 -13,-41 -10,-12 -22,-22 -37,-31 -15,-8 -33,-14 -52,-19 -19,-4 -40,-6 -61,-6 z m 762,32 c -17,-16 -31,-32 -43,-48 -12,-15 -18,-32 -18,-50 l 0,-24 c 46,10 84,30 114,60 29,29 53,65 70,107 17,42 29,87 35,137 7,50 10,98 10,147 l 0,44 c 0,8 -1,18 -1,29 -1,12 -3,25 -6,37 -3,13 -7,26 -12,38 -6,11 -13,22 -22,31 l -93,0 c 16,-21 27,-44 35,-68 7,-25 10,-47 10,-67 l -399,0 c 0,20 4,42 10,67 7,24 18,47 36,68 l -94,0 c -9,-9 -15,-20 -21,-31 -5,-12 -10,-25 -13,-38 -3,-12 -5,-25 -5,-37 -1,-11 -2,-21 -2,-29 l 0,-44 c 0,-49 3,-97 10,-147 6,-50 17,-95 34,-137 16,-42 39,-78 68,-107 29,-30 67,-50 113,-60 l 0,24 c 0,35 -16,67 -49,98 -14,15 -27,33 -39,54 -11,21 -20,45 -27,70 -7,25 -13,51 -16,79 -3,27 -5,54 -5,80 l 399,0 c 0,-26 -1,-53 -4,-80 -2,-28 -7,-54 -13,-79 -6,-25 -14,-49 -24,-70 -10,-21 -23,-39 -38,-54 z m 652,59 c -12,-21 -26,-40 -44,-57 -17,-16 -38,-28 -62,-34 l -14,0 0,540 -89,0 0,-540 -12,0 c -25,6 -47,18 -65,35 -17,17 -32,36 -43,56 l -89,0 c 10,-27 22,-52 37,-75 15,-22 33,-42 55,-58 21,-15 44,-27 70,-35 27,-8 57,-13 91,-13 34,0 64,5 91,14 27,9 51,21 72,37 20,16 38,35 54,58 14,22 27,46 36,72 l -88,0 z m 442,-181 c 57,0 104,12 140,36 37,25 66,56 88,95 22,39 38,82 46,130 9,48 13,96 13,144 0,35 -6,58 -18,71 -13,13 -36,19 -69,19 l -399,0 c 0,20 3,42 10,67 6,24 18,47 35,68 l -93,0 c -9,-9 -16,-20 -21,-32 -6,-12 -10,-24 -13,-37 -3,-13 -5,-25 -6,-37 0,-11 -1,-21 -1,-29 l 0,-90 c 0,-47 4,-95 11,-143 6,-49 20,-92 40,-131 20,-39 50,-70 88,-95 38,-24 88,-36 149,-36 z m 0,90 c -43,0 -78,10 -105,28 -26,20 -46,44 -60,74 -14,30 -23,63 -27,101 -5,38 -7,75 -7,112 l 366,0 c 13,0 21,-3 25,-8 5,-6 7,-15 7,-29 0,-28 -3,-58 -9,-90 -6,-33 -17,-63 -32,-91 -16,-27 -36,-50 -62,-69 -25,-19 -58,-28 -96,-28 z"
         id="path3399"
         inkscape:connector-curvature="0"
         style="fill:#4f007d;fill-rule:nonzero" /></g></g><g
     id="Слой_x0020_1_0"
     transform="translate(-809.00487,-2434.922)"><metadata
       id="CorelCorpID_1Corel-Layer" /><g
       id="_598606230368"><path
         class="fil8"
         d="M 13324,3792 C 11592,3595 9829,3380 8066,3550 6558,3695 5391,4299 4661,5097 c -1476,1613 -743,3653 1034,5051 930,731 2231,1259 3680,1515 1351,240 3090,265 4414,-47 1413,-332 2325,-1264 2840,-2084 625,-994 553,-2090 211,-3116 -298,-894 -911,-1782 -2036,-2402 -1165,-642 -2999,-809 -4502,-881 -3054,-145 -5735,692 -7306,2292 -1310,1334 -1620,3093 -278,4460 1470,1498 4792,2120 7488,2139 2833,20 5799,-720 7514,-2135 1075,-887 1562,-1882 1178,-2975 C 18525,5857 17379,4885 16202,4101 14157,2740 11177,2607 8388,3097 5883,3537 3986,4732 3460,6298 c -527,1570 445,3388 2211,4551 1719,1132 4476,1332 6815,958 2433,-390 4558,-1479 5318,-2965 C 18695,7101 17080,5236 14996,4097 12842,2919 9897,2435 7168,3096 4892,3648 3119,4873 2296,6268 c -803,1362 -455,2880 1201,3944 1816,1165 4901,1615 7447,1620 2496,4 4971,-575 6421,-1861 C 19109,8424 18880,6427 16954,4999 15024,3568 11769,2955 8907,3577 6158,4175 3874,5697 3009,7387 c -372,727 -387,1497 -48,2228 23,49 146,28 124,-20 -974,-2099 1297,-4224 4053,-5365 3067,-1269 6883,-974 9448,649 2536,1604 2350,4183 -267,5710 -2142,1249 -5465,1337 -8197,955 C 5230,11139 2435,10097 2040,8156 1699,6474 3287,4792 5415,3797 c 2681,-1253 6036,-1161 8751,-2 2771,1183 4663,3474 3236,5488 -1165,1644 -4167,2589 -6997,2626 -1407,18 -2800,-231 -3942,-734 C 5155,10599 4331,9619 3846,8702 2922,6956 3644,5003 6086,3872 c 2493,-1154 6723,-1397 9237,-170 1495,729 2723,1855 3323,2957 724,1330 -134,2635 -1635,3616 -2314,1512 -6011,1946 -9220,1499 C 6186,11550 4559,11073 3422,10333 2365,9645 1932,8700 1968,7773 2040,5888 4095,4139 6947,3471 c 1887,-442 4148,-273 6030,83 1910,361 2933,1302 3484,2430 1031,2110 200,5544 -4245,5736 -1818,79 -3565,-149 -5057,-804 C 5671,10262 4671,9256 4181,8190 3695,7133 3931,5969 4804,5012 5876,3839 7834,3480 9915,3530 c 1142,27 2274,166 3397,289 29,3 42,-24 12,-27 l 0,0 z"
         id="path3404"
         inkscape:connector-curvature="0"
         style="fill:#fefefe;fill-rule:nonzero" /><path
         class="fil8"
         d="M 14948,2861 C 12264,1989 8818,2600 6292,3401 3715,4218 1797,5589 1816,7434 c 17,1728 1842,3301 4225,4146 2199,780 4964,924 7436,699 2409,-219 4844,-913 6130,-2229 1346,-1377 946,-3103 -503,-4376 C 17525,4285 14891,3384 12297,2898 9579,2389 6630,2388 4197,3375 1689,4392 417,6263 916,8064 c 482,1741 2970,3206 5550,3852 2670,669 5756,647 8083,-488 2293,-1118 3712,-2888 3643,-4687 -86,-2258 -2988,-3746 -6499,-3935 -3443,-186 -7210,614 -9943,1874 -17,8 0,27 18,18 4140,-1867 12274,-3156 15500,143 1780,1821 629,4245 -1444,5773 -2263,1670 -5723,2079 -8987,1349 C 3581,11235 867,9378 856,7193 844,4943 3762,3035 7302,2653 c 2962,-320 6237,367 8716,1324 2579,995 4653,2628 4316,4579 -666,3851 -9300,4503 -13934,3109 C 3427,10770 1436,8721 1945,6690 2489,4516 6000,3275 9164,2723 c 1860,-324 4015,-422 5774,149 11,3 21,-7 10,-11 l 0,0 z"
         id="path3406"
         inkscape:connector-curvature="0"
         style="fill:#fefefe;fill-rule:nonzero" /></g></g></svg>