<svg xmlns="http://www.w3.org/2000/svg" width="17.281" height="10.87" viewBox="0 0 17.281 10.87">
  <defs>
    <style>
      .cls-1 {
        fill: #fff;
        fill-rule: evenodd;
      }
    </style>
  </defs>
  <path id="behance" class="cls-1" d="M420.068,4810.25h4.3v1.08h-4.3v-1.08Zm5.932,6.39h-5.6a1.658,1.658,0,0,0,1.9,1.83,1.637,1.637,0,0,0,1.683-.75H425.7c-0.6,1.81-1.707,2.33-3.464,2.33a3.765,3.765,0,0,1-3.963-4.03,3.868,3.868,0,0,1,3.963-4.05C424.873,4811.97,426.15,4814.28,426,4816.64Zm-5.6-1.57h3.468a1.527,1.527,0,0,0-1.7-1.51A1.588,1.588,0,0,0,420.4,4815.07Zm-2.692,1.71c0,2.15-1.847,3.07-3.784,3.07h-5.194v-10.66h5.046c2.041,0,3.422.72,3.422,2.69a2.317,2.317,0,0,1-1.457,2.21A2.594,2.594,0,0,1,417.709,4816.78Zm-4.616-5.8h-2.206v2.48h2.386a1.234,1.234,0,0,0,1.441-1.26C414.714,4811.19,413.933,4810.98,413.093,4810.98Zm0.36,4.07h-2.566v2.9h2.521c0.931,0,1.741-.29,1.741-1.39A1.441,1.441,0,0,0,413.453,4815.05Z" transform="translate(-408.719 -4809.19)"/>
</svg>
