<svg xmlns="http://www.w3.org/2000/svg" width="17.25" height="16.97" viewBox="0 0 17.25 16.97">
  <defs>
    <style>
      .cls-1 {
        fill: #fff;
        fill-rule: evenodd;
      }
    </style>
  </defs>
  <path id="dribbble" class="cls-1" d="M398.928,4812.78a8.368,8.368,0,0,0-.5-1.59,8,8,0,0,0-.8-1.44,8.951,8.951,0,0,0-1.053-1.26,8.671,8.671,0,0,0-1.277-1.03,8.967,8.967,0,0,0-1.467-.79,8.8,8.8,0,0,0-3.36-.66,8.8,8.8,0,0,0-3.361.66,9,9,0,0,0-1.466.79,8.619,8.619,0,0,0-1.277,1.03,8.89,8.89,0,0,0-1.054,1.26,8.129,8.129,0,0,0-.8,1.44,8.368,8.368,0,0,0-.5,1.59,8.442,8.442,0,0,0,0,3.42,8.368,8.368,0,0,0,.5,1.59,8.129,8.129,0,0,0,.8,1.44,8.364,8.364,0,0,0,1.054,1.26,8.619,8.619,0,0,0,1.277,1.03,9,9,0,0,0,1.466.79,9.136,9.136,0,0,0,1.622.49,8.974,8.974,0,0,0,3.477,0,9.086,9.086,0,0,0,1.622-.49,8.967,8.967,0,0,0,1.467-.79,8.671,8.671,0,0,0,1.277-1.03,8.417,8.417,0,0,0,1.053-1.26,8,8,0,0,0,.8-1.44A8.371,8.371,0,0,0,398.928,4812.78Zm-1.086,1.64a17.54,17.54,0,0,0-5.135-.24c-0.052-.12-0.105-0.25-0.159-0.37-0.154-.36-0.319-0.71-0.49-1.05a9.471,9.471,0,0,0,4.107-2.87A7.13,7.13,0,0,1,397.842,4814.42Zm-2.5-5.37a8.019,8.019,0,0,1-3.851,2.63,36.108,36.108,0,0,0-2.755-4.23,7.632,7.632,0,0,1,1.737-.2A7.431,7.431,0,0,1,395.341,4809.05Zm-6.635-1.59h0Zm-1.379.48a43.31,43.31,0,0,1,2.737,4.17,27.744,27.744,0,0,1-6.806.89A7.26,7.26,0,0,1,387.327,4807.94Zm-4.227,6.55c0-.08,0-0.15.006-0.23a27.385,27.385,0,0,0,7.568-1.03c0.212,0.41.414,0.82,0.6,1.23l-0.291.09a11.583,11.583,0,0,0-6,4.78h0A7.14,7.14,0,0,1,383.1,4814.49Zm7.372,7.25a7.46,7.46,0,0,1-4.7-1.66l0.165,0.12a9.907,9.907,0,0,1,5.785-4.52c0.016-.01.033-0.01,0.049-0.02a29.762,29.762,0,0,1,1.575,5.5A7.443,7.443,0,0,1,390.472,4821.74Zm4.119-1.24a31.059,31.059,0,0,0-1.435-5.18,10.9,10.9,0,0,1,4.595.32A7.239,7.239,0,0,1,394.591,4820.5Z" transform="translate(-381.844 -4806)"/>
</svg>
