<svg xmlns="http://www.w3.org/2000/svg" width="13.218" height="17" viewBox="0 0 13.218 17">
  <defs>
    <style>
      .cls-1 {
        fill: #fff;
        fill-rule: evenodd;
      }
    </style>
  </defs>
  <path id="pinterest" class="cls-1" d="M362.314,4817.04c-0.141.56-.283,1.14-0.43,1.7a12.442,12.442,0,0,1-.484,1.64,8.248,8.248,0,0,1-1.378,2.33c-0.387.44-.305,0.27-0.422,0.24-0.089-.01-0.1-0.1-0.114-0.22a12.67,12.67,0,0,1,0-2.22,11.813,11.813,0,0,1,.4-2.3c0.327-1.37.638-2.71,0.968-4.08a0.9,0.9,0,0,0,.06-0.3,4.163,4.163,0,0,1-.289-1.12,3.523,3.523,0,0,1,.094-1.29,2.127,2.127,0,0,1,1.278-1.55,1.446,1.446,0,0,1,1.169.09,1.242,1.242,0,0,1,.585.82,2.892,2.892,0,0,1-.054,1.25c-0.18.81-.417,1.42-0.632,2.2a2.361,2.361,0,0,0-.127,1.2,1.366,1.366,0,0,0,.571.84,1.7,1.7,0,0,0,1.1.31,2.409,2.409,0,0,0,1.788-1.04,6.112,6.112,0,0,0,1.129-3.11,7.416,7.416,0,0,0,.047-1.33,3.582,3.582,0,0,0-.76-2.07,3.543,3.543,0,0,0-1.693-1.13,5.7,5.7,0,0,0-2.528-.16,4.5,4.5,0,0,0-3.314,2.34,4.635,4.635,0,0,0-.565,2.26,2.892,2.892,0,0,0,.458,1.66,4.45,4.45,0,0,1,.309.4,1.131,1.131,0,0,1-.081.77c-0.074.28-.082,0.67-0.417,0.67a0.871,0.871,0,0,1-.43-0.16,3.358,3.358,0,0,1-1.633-2.47,5.842,5.842,0,0,1,0-2.15,6.046,6.046,0,0,1,.632-1.71,6.217,6.217,0,0,1,2.332-2.36,7.13,7.13,0,0,1,2.635-.89c0.343-.05.7-0.07,1.082-0.09a6.6,6.6,0,0,1,2.918.54,6,6,0,0,1,2.01,1.42,5.388,5.388,0,0,1,1.237,2.19,5.242,5.242,0,0,1,.268,1.52,8.957,8.957,0,0,1-.208,1.57,6.173,6.173,0,0,1-2.588,4.28,4.541,4.541,0,0,1-1.183.53,4.307,4.307,0,0,1-1.513.19,3.111,3.111,0,0,1-1.337-.38A2.167,2.167,0,0,1,362.314,4817.04Z" transform="translate(-356.813 -4806)"/>
</svg>
