<svg xmlns="http://www.w3.org/2000/svg" width="17.25" height="13.78" viewBox="0 0 17.25 13.78">
  <defs>
    <style>
      .cls-1 {
        fill-rule: evenodd;
      }
    </style>
  </defs>
  <path id="twitter" class="cls-1" d="M339.954,4807.47a3.7,3.7,0,0,1,2.8,1.09,5.713,5.713,0,0,0,1.815-.6c0.147-.08.294-0.15,0.441-0.23a3.514,3.514,0,0,1-1.15,1.63,1.767,1.767,0,0,1-.388.27v0.01a6.953,6.953,0,0,0,2-.53h0a5.569,5.569,0,0,1-1.2,1.36c-0.184.14-.369,0.29-0.553,0.43a9.944,9.944,0,0,1-7.1,9.93,10.665,10.665,0,0,1-5.012.2,13.17,13.17,0,0,1-2.082-.66,9.318,9.318,0,0,1-1-.51c-0.1-.06-0.207-0.13-0.311-0.19a6,6,0,0,0,1.132.04c0.349-.05.69-0.04,1.011-0.11a7.326,7.326,0,0,0,2.126-.75,3.837,3.837,0,0,0,.959-0.62,3.044,3.044,0,0,1-1.054-.18,3.533,3.533,0,0,1-2.247-2.23,3.449,3.449,0,0,0,1.581-.07,2.513,2.513,0,0,1-1.157-.46,3.32,3.32,0,0,1-1.668-2.98c0.121,0.06.242,0.12,0.363,0.17a3.923,3.923,0,0,0,.743.21,1.118,1.118,0,0,0,.484.04h-0.018c-0.178-.2-0.468-0.34-0.648-0.56a3.51,3.51,0,0,1-.794-3.16,3.922,3.922,0,0,1,.38-0.9,0.017,0.017,0,0,1,.017.01,2.218,2.218,0,0,0,.32.36,6.26,6.26,0,0,0,1.054.99,10.654,10.654,0,0,0,4.329,2.06,7.1,7.1,0,0,0,1.59.2,3.159,3.159,0,0,1,.017-1.63,3.456,3.456,0,0,1,2-2.34,4.515,4.515,0,0,1,.786-0.24C339.666,4807.51,339.81,4807.49,339.954,4807.47Z" transform="translate(-328.219 -4807.47)"/>
</svg>
