<?xml version="1.0" encoding="UTF-8" standalone="no"?>
<svg
   xmlns:dc="http://purl.org/dc/elements/1.1/"
   xmlns:cc="http://creativecommons.org/ns#"
   xmlns:rdf="http://www.w3.org/1999/02/22-rdf-syntax-ns#"
   xmlns:svg="http://www.w3.org/2000/svg"
   xmlns="http://www.w3.org/2000/svg"
   version="1.1"
   width="220.20312"
   height="128.51656"
   id="svg3724"
   viewBox="0 0 220.20313 128.51655">
  <metadata
     id="metadata3730">
    <rdf:RDF>
      <cc:Work
         rdf:about="">
        <dc:format>image/svg+xml</dc:format>
        <dc:type
           rdf:resource="http://purl.org/dc/dcmitype/StillImage" />
        <dc:title></dc:title>
      </cc:Work>
    </rdf:RDF>
  </metadata>
  <defs
     id="defs3728" />
  <g
     id="Layer1000"
     transform="matrix(2.7950432,0,0,2.7950432,-703.13636,-656.01149)">
    <g
       id="g3741"
       transform="translate(0.07968311,1.6799667)">
      <path
         id="path3682"
         style="fill:#c59a5b;fill-rule:evenodd"
         d="m 269.36862,233.02687 c 4.1448,0 8.5965,0 12.7412,0 3.3427,-0.0377 5.8737,0.6249 7.592,1.8666 1.7105,1.2421 2.5697,3.0306 2.5697,5.366 0,3.7492 -2.0231,6.3033 -6.0611,7.6622 2.3587,0.3986 4.1788,1.281 5.4598,2.6402 1.273,1.3589 1.9135,3.0931 1.9135,5.2019 0,3.0539 -1.1108,5.4187 -3.3353,7.0919 -2.2195,1.6695 -5.2939,2.4136 -9.2399,2.4136 h -11.6868 v -0.9443 c 0.8037,-0.0825 3.313,0.4375 3.4289,-2.5774 0.0233,-0.608 0.0321,-0.2738 0.0392,-1.0235 0.007,-0.7567 0.008,-1.633 0.008,-2.547 0,-6.1861 0,-12.372 0,-18.5581 0,-4.2245 0.4792,-5.7741 -3.4289,-5.7741 z m 7.9277,16.2616 v 14.2099 c 0.4532,0.1717 0.9846,0.2734 1.5858,0.3201 0.601,0.0466 1.4546,0.0702 1.9547,0.0702 2.5304,0 4.4483,-0.9275 5.7642,-2.1809 1.316,-1.2535 2.2748,-3.0698 2.2748,-5.4522 0,-2.382 -0.9705,-4.1552 -2.2984,-5.3034 -1.3356,-1.1559 -3.4834,-1.7339 -6.4437,-1.7339 -0.8671,0 -2.0172,0.0236 -2.8374,0.0702 z m 0,-1.851 c 0.9373,0.0157 2.1969,0.0233 3.1655,0.0233 4.2343,0 7.102,-1.9966 7.102,-6.3811 0,-4.2242 -3.0134,-6.4382 -7.141,-6.4382 -0.3986,0 -1.1353,0.008 -1.6032,0.0313 -0.4685,0.023 -0.9763,0.0705 -1.5233,0.1327 0,4.2107 0,8.4214 0,12.632 z" />
      <path
         id="path3684"
         style="fill:#c59a5b;fill-rule:evenodd"
         d="m 291.27282,234.70397 c 2.3977,-0.9998 5.0425,-1.4999 7.9348,-1.4999 1.7808,0 3.5616,0.1509 5.342,0.4529 1.7808,0.3017 3.5313,0.7392 5.2516,1.3129 l -0.1358,7.8771 h -0.5884 c -0.5736,-2.6559 -1.7504,-4.746 -3.5162,-6.2702 -1.7654,-1.5241 -4.0141,-2.2861 -6.738,-2.2861 -2.3664,0 -4.4532,0.5065 -6.2591,1.5193 -0.2993,-0.3364 -0.6418,-0.6448 -1.0278,-0.9251 -0.0855,-0.0619 -0.1732,-0.122 -0.2631,-0.1809 z" />
      <path
         id="path3686"
         style="fill:#c59a5b;fill-rule:evenodd"
         d="m 309.68752,262.61317 c -1.7741,0.6908 -3.2905,1.2095 -4.5492,1.5569 -2.2333,0.6034 -4.5424,0.9055 -6.9266,0.9055 -2.8061,0 -5.3399,-0.4529 -7.6027,-1.3589 0.5271,-0.272 1.018,-0.5795 1.4727,-0.922 0.5424,-0.4075 1.0185,-0.8561 1.4282,-1.3463 2.321,1.392 5.0201,2.088 8.0972,2.088 1.9013,0 3.0937,-0.302 3.5766,-0.9054 0.3318,-0.4229 0.4979,-1.4641 0.4979,-3.1238 v -2.7165 c 0,-2.4446 -0.3774,-4.0065 -1.132,-4.6857 -0.7542,-0.6791 -2.4142,-1.1694 -4.9796,-1.4711 v -0.6791 h 13.4004 v 0.6791 c -1.4788,0.3017 -2.4296,0.8147 -2.8521,1.5392 -0.302,0.513 -0.4529,1.5692 -0.4529,3.1688 v 5.7045 h 0.0221 z" />
    </g>
  </g>
  <text
     id="text32"
     y="121.24506"
     x="-0.56445312"
     style="font-style:normal;font-variant:normal;font-weight:normal;font-stretch:normal;font-size:34px;line-height:1.70000005;font-family:'Times New Roman';-inkscape-font-specification:'Times New Roman, ';letter-spacing:0px;word-spacing:0px;fill:#000000;fill-opacity:1;stroke:none"
     xml:space="preserve"><tspan
       y="121.24506"
       x="-0.56445312"
       id="tspan30">Billonare Group</tspan></text>
</svg>
